<svg width="21" height="28" viewBox="0 0 21 28" fill="none" xmlns="http://www.w3.org/2000/svg">
<path d="M10.7651 27.4074C11.147 27.3622 11.5086 27.1782 11.799 26.8795L19.6055 18.8779C19.999 18.5011 20.2473 17.949 20.2938 17.3499C20.3403 16.7508 20.182 16.1552 19.8553 15.6967C19.5271 15.2401 19.0595 14.9605 18.5571 14.924C18.0547 14.8875 17.5609 15.0959 17.1892 15.5023L10.5909 22.2676L3.99251 15.5023C3.62077 15.0959 3.12707 14.8876 2.62463 14.924C2.12219 14.9605 1.65462 15.24 1.32645 15.6967C0.999722 16.1551 0.84144 16.7508 0.887907 17.3499C0.934374 17.949 1.18268 18.5011 1.57622 18.8779L9.38271 26.8795C9.7646 27.2719 10.2641 27.4612 10.7651 27.4074Z" fill="white"/>
<path d="M10.7651 12.4975C11.147 12.4523 11.5086 12.2682 11.799 11.9696L19.6055 3.96802C19.999 3.59121 20.2473 3.03904 20.2938 2.43995C20.3403 1.84086 20.182 1.24527 19.8553 0.78683C19.5271 0.330164 19.0595 0.0505985 18.5571 0.0141026C18.0547 -0.0223627 17.5609 0.186011 17.1892 0.592348L10.5909 7.35766L3.99251 0.592348C3.62077 0.18602 3.12707 -0.0223489 2.62463 0.0141026C2.12219 0.0505678 1.65462 0.330137 1.32645 0.78683C0.999722 1.24523 0.84144 1.84086 0.887907 2.43995C0.934374 3.03904 1.18268 3.59119 1.57622 3.96802L9.38271 11.9696C9.7646 12.362 10.2641 12.5513 10.7651 12.4975Z" fill="white"/>
</svg>
