<svg width="161" height="280" viewBox="0 0 161 280" fill="none" xmlns="http://www.w3.org/2000/svg">
<path fill-rule="evenodd" clip-rule="evenodd" d="M-0.572571 -10H160.557V181H-0.572571V-10Z" fill="#4AF6CD"/>
<path d="M57.7252 145.36C57.7252 142.2 58.1852 139.42 59.1052 137.02C60.0252 134.58 61.4052 132.4 63.2452 130.48L69.1252 135.46C66.8452 138.34 65.7052 141.36 65.7052 144.52C65.7052 146.16 66.0252 147.42 66.6652 148.3C67.2652 149.14 68.1252 149.56 69.2452 149.56C70.0452 149.56 70.7052 149.34 71.2252 148.9C71.7452 148.46 72.2452 147.72 72.7252 146.68C73.2052 145.64 73.8052 144 74.5252 141.76C75.8852 137.48 77.6052 134.36 79.6852 132.4C81.7252 130.4 84.5652 129.4 88.2052 129.4C90.8452 129.4 93.1852 130.08 95.2252 131.44C97.2252 132.8 98.7852 134.78 99.9052 137.38C101.025 139.94 101.585 142.96 101.585 146.44C101.585 153.08 99.5652 158.5 95.5252 162.7L89.4652 157.24C92.1852 153.92 93.5452 150.46 93.5452 146.86C93.5452 144.98 93.1452 143.52 92.3452 142.48C91.5052 141.44 90.4052 140.92 89.0452 140.92C88.0852 140.92 87.3052 141.12 86.7052 141.52C86.0652 141.92 85.5052 142.64 85.0252 143.68C84.5052 144.68 83.9452 146.16 83.3452 148.12C81.8652 152.84 80.0852 156.16 78.0052 158.08C75.9252 160 73.3052 160.96 70.1452 160.96C67.6652 160.96 65.4852 160.3 63.6052 158.98C61.7252 157.62 60.2852 155.76 59.2852 153.4C58.2452 151 57.7252 148.32 57.7252 145.36ZM86.5252 91.9553C89.4052 91.9553 91.9852 92.5953 94.2652 93.8753C96.5452 95.1153 98.3452 96.9953 99.6652 99.5153C100.945 102.035 101.585 105.115 101.585 108.755C101.585 114.275 100.245 118.455 97.5652 121.295C94.8452 124.135 91.1652 125.555 86.5252 125.555H58.8052V114.455H86.1652C88.6852 114.455 90.5452 114.015 91.7452 113.135C92.9052 112.215 93.4852 110.755 93.4852 108.755C93.4852 106.755 92.8852 105.315 91.6852 104.435C90.4852 103.555 88.6452 103.115 86.1652 103.115H58.8052V91.9553H86.5252ZM85.1452 71.9477V75.0077H100.505V86.1077H58.8052V71.6477C58.8052 65.7677 59.8652 61.3877 61.9852 58.5077C64.1052 55.5877 67.3652 54.1277 71.7652 54.1277C74.4052 54.1277 76.6052 54.7477 78.3652 55.9877C80.1252 57.1877 81.7052 59.1277 83.1052 61.8077L100.505 51.4277V63.7877L85.1452 71.9477ZM77.5852 75.0077V71.2877C77.5852 67.4477 75.6452 65.5277 71.7652 65.5277C69.9652 65.5277 68.6452 66.0677 67.8052 67.1477C66.9652 68.1877 66.5452 69.7677 66.5452 71.8877V75.0077H77.5852ZM100.505 48.9006H58.8052V23.2806L66.6652 24.4206V37.8006H76.6852V26.0406H84.5452V37.8006H100.505V48.9006Z" fill="white"/>
<path d="M57.7252 257.92C57.7252 252.36 59.4852 247.58 63.0052 243.58L68.7052 249.04C67.6252 250.56 66.8452 251.94 66.3652 253.18C65.8452 254.38 65.5852 255.76 65.5852 257.32C65.5852 260.32 66.7452 262.68 69.0652 264.4C71.3852 266.08 74.9252 266.92 79.6852 266.92C83.1652 266.92 85.9252 266.64 87.9652 266.08C89.9652 265.52 91.4052 264.68 92.2852 263.56C93.1652 262.4 93.6052 260.92 93.6052 259.12C93.6052 257.32 93.2252 255.68 92.4652 254.2H83.8852V258.94L76.2652 260.02V243.46H97.0252C98.4652 245.62 99.5852 248.06 100.385 250.78C101.185 253.5 101.585 256.18 101.585 258.82C101.585 271.86 94.2652 278.38 79.6252 278.38C75.0652 278.38 71.1452 277.5 67.8652 275.74C64.5452 273.94 62.0252 271.5 60.3052 268.42C58.5852 265.34 57.7252 261.84 57.7252 257.92ZM57.7252 220.335C57.7252 214.295 59.6452 209.595 63.4852 206.235C67.3252 202.875 72.7052 201.195 79.6252 201.195C84.1452 201.195 88.0652 201.955 91.3852 203.475C94.6652 204.955 97.1852 207.135 98.9452 210.015C100.705 212.895 101.585 216.335 101.585 220.335C101.585 226.375 99.6652 231.075 95.8252 234.435C91.9852 237.755 86.5852 239.415 79.6252 239.415C75.1052 239.415 71.2052 238.675 67.9252 237.195C64.6452 235.675 62.1252 233.495 60.3652 230.655C58.6052 227.775 57.7252 224.335 57.7252 220.335ZM65.7052 220.335C65.7052 222.935 66.7852 224.855 68.9452 226.095C71.1052 227.295 74.6652 227.895 79.6252 227.895C84.5852 227.895 88.1652 227.275 90.3652 226.035C92.5252 224.795 93.6052 222.895 93.6052 220.335C93.6052 217.695 92.5252 215.775 90.3652 214.575C88.2052 213.375 84.6252 212.775 79.6252 212.775C74.6652 212.775 71.1052 213.375 68.9452 214.575C66.7852 215.775 65.7052 217.695 65.7052 220.335Z" fill="white"/>
<rect x="79.033" y="191" width="20" height="0.959103" transform="rotate(-90 79.033 191)" fill="white"/>
</svg>
