<svg width="1006" height="463" viewBox="0 0 1006 463" fill="none" xmlns="http://www.w3.org/2000/svg">
<g opacity="0.29827">
<path d="M953.122 134.462L419.525 -378.605V-763.507L27.4518 -786C24.4241 -778.561 5.02485 -757.122 8.05195 -745.172C11.6964 -730.88 30.0297 -735.448 35.3561 -726.252C41.5796 -715.416 30.8708 -671.366 27.6749 -658.656C21.5635 -634.581 7.60327 -615.077 3.5657 -591.001C-3.21851 -550.584 10.518 -553.805 36.5337 -528.559C80.3786 -485.975 45.2241 -441.808 56.2694 -391.785C65.2402 -351.015 104.432 -329.987 118.785 -289.219C129.886 -257.822 145.136 -249.798 168.797 -226.835C168.237 -240.777 156.294 -281.897 178.721 -278.265C200.98 -274.692 192.402 -240.367 196.663 -226.015C200.251 -214.066 225.649 -190.167 204.568 -179.155C197.56 -175.523 177.6 -189.991 169.582 -193.857C175.245 -175.405 171.657 -156.252 180.628 -138.62C191.337 -117.592 202.887 -125.675 217.072 -114.253C231.705 -102.479 230.136 -88.9479 223.632 -71.1409C216.848 -52.5721 209.839 -55.4422 220.604 -33.0661C228.398 -16.8996 241.629 3.60212 253.011 15.9028C259.627 23.049 266.804 24.6892 273.42 33.8268C278.914 41.4416 276.784 51.3999 283.344 58.2528C294.557 70.0266 313.565 70.2023 322.423 85.6074C332.291 102.77 321.078 115.715 350.121 114.133C351.635 148.459 357.858 179.563 357.522 213.887C373.725 220.623 399.908 212.598 416.897 209.025C433.773 232.806 455.583 216.289 474.871 229.234C483.281 234.858 481.543 248.916 486.645 253.836C497.13 263.911 504.867 257.585 517.875 261.099C527.519 263.677 534.975 271.057 544.17 273.752C552.861 276.27 567.158 270.354 573.606 278.379C581.343 287.985 568.392 305.558 580.054 313.29C589.753 319.733 603.657 304.386 613.077 306.612C624.067 309.248 655.576 339.298 663.314 349.196C672.116 360.501 680.976 381.589 685.965 396.115C693.758 418.842 692.693 429.972 708.784 446.608C719.044 457.21 709.288 457.971 725.996 461.076C736.929 463.126 751.394 454.867 762.44 453.578C785.428 450.942 808.641 455.511 831.291 451.001C852.373 446.783 872.501 439.871 894.143 436.65C912.87 433.838 945.838 436.005 962.433 426.692C980.43 416.675 982.057 394.006 956.041 398.225C953.967 383.757 963.218 363.782 952.901 353.766C967.255 333.265 972.469 318.797 974.711 293.726C975.72 282.714 976.169 270.53 981.383 261.275C986.485 252.137 1000.84 246.689 1003.64 238.84C1007.96 226.656 1001.06 221.209 995.793 214.414C992.429 210.021 982.841 212.13 980.093 208.264C974.991 201.176 980.037 193.854 977.234 186.708C969.048 166.031 959.292 157.888 953.124 134.458C953.293 138.382 953.461 142.366 953.237 146.232" stroke="white" stroke-width="2" stroke-linecap="round" stroke-linejoin="round"/>
</g>
<path d="M689.614 56.0593C681.521 79.1155 700.477 87.2061 715.648 102.275C720.144 106.741 720.573 114.118 715.841 118.58C705.665 128.176 667.085 114.216 669.533 126.866C672.06 139.931 704.678 158.21 706.148 159.461C719.058 170.438 723.262 198.287 716.152 213.556C711.093 224.421 677.55 220.759 666.999 217.141C597.904 193.447 629.039 196.273 551.423 188.915C545.482 188.352 539.255 188.064 533.549 189.882C527.671 191.755 527.858 199.436 529.83 203.589C536.365 217.35 565.622 240.693 557.749 258.783C555.333 264.333 549.672 267.839 547.123 273.324C545.126 277.621 545.348 282.694 544.46 287.379" stroke="white" stroke-width="2"/>
<path fill-rule="evenodd" clip-rule="evenodd" d="M542.623 294.752C546.014 294.752 548.763 291.883 548.763 288.343C548.763 284.803 546.014 281.933 542.623 281.933C539.232 281.933 536.483 284.803 536.483 288.343C536.483 291.883 539.232 294.752 542.623 294.752Z" fill="#4AF6CD"/>
<path fill-rule="evenodd" clip-rule="evenodd" d="M625.274 331.238C626.839 331.238 628.108 329.913 628.108 328.279C628.108 326.646 626.839 325.321 625.274 325.321C623.709 325.321 622.441 326.646 622.441 328.279C622.441 329.913 623.709 331.238 625.274 331.238Z" fill="#4AF6CD"/>
<path fill-rule="evenodd" clip-rule="evenodd" d="M685.728 437.735C687.293 437.735 688.562 436.411 688.562 434.777C688.562 433.143 687.293 431.819 685.728 431.819C684.163 431.819 682.895 433.143 682.895 434.777C682.895 436.411 684.163 437.735 685.728 437.735Z" fill="#4AF6CD"/>
<path fill-rule="evenodd" clip-rule="evenodd" d="M345.675 198.116C347.24 198.116 348.509 196.791 348.509 195.157C348.509 193.524 347.24 192.199 345.675 192.199C344.11 192.199 342.842 193.524 342.842 195.157C342.842 196.791 344.11 198.116 345.675 198.116Z" fill="#4AF6CD"/>
<path fill-rule="evenodd" clip-rule="evenodd" d="M689.979 63.0217C693.37 63.0217 696.119 60.1521 696.119 56.6121C696.119 53.0722 693.37 50.2026 689.979 50.2026C686.588 50.2026 683.839 53.0722 683.839 56.6121C683.839 60.1521 686.588 63.0217 689.979 63.0217Z" fill="#4AF6CD"/>
<path d="M390.806 279.993L388.566 291.017H386.614L384.582 281.785L382.534 291.017H380.63L378.39 279.993H379.878L381.654 289.689L383.782 279.993H385.398L387.574 289.689L389.414 279.993H390.806ZM398.941 286.553C398.941 286.798 398.93 287.049 398.909 287.305H393.533C393.597 288.233 393.831 288.915 394.237 289.353C394.642 289.79 395.165 290.009 395.805 290.009C396.21 290.009 396.583 289.95 396.925 289.833C397.266 289.715 397.623 289.529 397.997 289.273L398.637 290.153C397.741 290.857 396.759 291.209 395.693 291.209C394.519 291.209 393.602 290.825 392.941 290.057C392.29 289.289 391.965 288.233 391.965 286.889C391.965 286.014 392.103 285.241 392.381 284.569C392.669 283.886 393.074 283.353 393.597 282.969C394.13 282.585 394.754 282.393 395.469 282.393C396.589 282.393 397.447 282.761 398.045 283.497C398.642 284.233 398.941 285.251 398.941 286.553ZM397.485 286.121C397.485 285.289 397.319 284.654 396.989 284.217C396.658 283.779 396.162 283.561 395.501 283.561C394.295 283.561 393.639 284.446 393.533 286.217H397.485V286.121ZM403.579 282.393C404.155 282.393 404.673 282.473 405.131 282.633C405.59 282.793 406.027 283.033 406.443 283.353L405.819 284.281C405.435 284.035 405.067 283.854 404.715 283.737C404.374 283.619 404.011 283.561 403.627 283.561C403.147 283.561 402.769 283.662 402.491 283.865C402.214 284.057 402.075 284.323 402.075 284.665C402.075 285.006 402.203 285.273 402.459 285.465C402.726 285.657 403.201 285.843 403.883 286.025C404.822 286.259 405.521 286.579 405.979 286.985C406.449 287.39 406.683 287.945 406.683 288.649C406.683 289.481 406.358 290.115 405.707 290.553C405.067 290.99 404.283 291.209 403.355 291.209C402.075 291.209 401.014 290.841 400.171 290.105L400.955 289.209C401.67 289.753 402.459 290.025 403.323 290.025C403.878 290.025 404.315 289.913 404.635 289.689C404.966 289.454 405.131 289.139 405.131 288.745C405.131 288.457 405.073 288.227 404.955 288.057C404.838 287.875 404.635 287.721 404.347 287.593C404.059 287.454 403.638 287.31 403.083 287.161C402.187 286.926 401.537 286.611 401.131 286.217C400.737 285.822 400.539 285.321 400.539 284.713C400.539 284.275 400.667 283.881 400.923 283.529C401.19 283.166 401.553 282.889 402.011 282.697C402.481 282.494 403.003 282.393 403.579 282.393ZM413.016 290.633C412.461 291.017 411.832 291.209 411.128 291.209C410.413 291.209 409.853 291.006 409.448 290.601C409.053 290.185 408.856 289.587 408.856 288.809V283.721H407.384V282.585H408.856V280.681L410.328 280.505V282.585H412.328L412.168 283.721H410.328V288.745C410.328 289.182 410.403 289.502 410.552 289.705C410.712 289.897 410.973 289.993 411.336 289.993C411.667 289.993 412.04 289.881 412.456 289.657L413.016 290.633ZM421.576 279.801C422.312 279.801 422.941 279.907 423.464 280.121C423.986 280.323 424.493 280.643 424.984 281.081L424.152 282.009C423.736 281.678 423.325 281.438 422.92 281.289C422.525 281.129 422.098 281.049 421.64 281.049C421.064 281.049 420.589 281.182 420.216 281.449C419.842 281.715 419.656 282.105 419.656 282.617C419.656 282.937 419.72 283.209 419.848 283.433C419.976 283.646 420.21 283.843 420.552 284.025C420.904 284.206 421.41 284.398 422.072 284.601C422.765 284.814 423.341 285.043 423.8 285.289C424.258 285.534 424.626 285.875 424.904 286.313C425.192 286.739 425.336 287.283 425.336 287.945C425.336 288.585 425.176 289.15 424.856 289.641C424.546 290.131 424.093 290.515 423.496 290.793C422.909 291.07 422.21 291.209 421.4 291.209C419.874 291.209 418.626 290.734 417.656 289.785L418.488 288.857C418.936 289.219 419.389 289.497 419.848 289.689C420.306 289.87 420.818 289.961 421.384 289.961C422.066 289.961 422.632 289.795 423.08 289.465C423.528 289.123 423.752 288.633 423.752 287.993C423.752 287.63 423.682 287.331 423.544 287.097C423.405 286.851 423.165 286.633 422.824 286.441C422.493 286.249 422.008 286.057 421.368 285.865C420.237 285.523 419.41 285.113 418.888 284.633C418.365 284.153 418.104 283.502 418.104 282.681C418.104 282.126 418.248 281.63 418.536 281.193C418.834 280.755 419.245 280.414 419.768 280.169C420.301 279.923 420.904 279.801 421.576 279.801ZM431.462 282.393C432.23 282.393 432.828 282.622 433.254 283.081C433.692 283.539 433.91 284.169 433.91 284.969V291.017H432.438V285.177C432.438 284.579 432.321 284.158 432.086 283.913C431.862 283.667 431.532 283.545 431.094 283.545C430.657 283.545 430.268 283.673 429.926 283.929C429.585 284.185 429.265 284.547 428.966 285.017V291.017H427.494V279.209L428.966 279.049V283.753C429.628 282.846 430.46 282.393 431.462 282.393ZM440.037 282.393C441.221 282.393 442.139 282.787 442.789 283.577C443.451 284.366 443.781 285.438 443.781 286.793C443.781 287.667 443.632 288.441 443.333 289.113C443.035 289.774 442.603 290.291 442.037 290.665C441.472 291.027 440.8 291.209 440.021 291.209C438.837 291.209 437.915 290.814 437.253 290.025C436.592 289.235 436.261 288.163 436.261 286.809C436.261 285.934 436.411 285.166 436.709 284.505C437.008 283.833 437.44 283.315 438.005 282.953C438.571 282.579 439.248 282.393 440.037 282.393ZM440.037 283.577C438.576 283.577 437.845 284.654 437.845 286.809C437.845 288.953 438.571 290.025 440.021 290.025C441.472 290.025 442.197 288.947 442.197 286.793C442.197 284.649 441.477 283.577 440.037 283.577ZM449.877 282.393C450.176 282.393 450.453 282.425 450.709 282.489L450.437 283.929C450.181 283.865 449.936 283.833 449.701 283.833C449.179 283.833 448.757 284.025 448.437 284.409C448.117 284.793 447.867 285.39 447.685 286.201V291.017H446.213V282.585H447.477L447.621 284.297C447.845 283.667 448.149 283.193 448.533 282.873C448.917 282.553 449.365 282.393 449.877 282.393ZM458.269 286.553C458.269 286.798 458.258 287.049 458.237 287.305H452.861C452.925 288.233 453.159 288.915 453.565 289.353C453.97 289.79 454.493 290.009 455.133 290.009C455.538 290.009 455.911 289.95 456.253 289.833C456.594 289.715 456.951 289.529 457.325 289.273L457.965 290.153C457.069 290.857 456.087 291.209 455.021 291.209C453.847 291.209 452.93 290.825 452.269 290.057C451.618 289.289 451.293 288.233 451.293 286.889C451.293 286.014 451.431 285.241 451.709 284.569C451.997 283.886 452.402 283.353 452.925 282.969C453.458 282.585 454.082 282.393 454.797 282.393C455.917 282.393 456.775 282.761 457.373 283.497C457.97 284.233 458.269 285.251 458.269 286.553ZM456.813 286.121C456.813 285.289 456.647 284.654 456.317 284.217C455.986 283.779 455.49 283.561 454.829 283.561C453.623 283.561 452.967 284.446 452.861 286.217H456.813V286.121ZM466.806 278.201V292.585H466.454V278.201H466.806ZM485.634 291.017H484.162L483.778 286.041C483.618 284.089 483.527 282.59 483.506 281.545L481.122 289.769H479.698L477.186 281.529C477.186 282.862 477.116 284.403 476.978 286.153L476.61 291.017H475.17L476.082 279.993H478.13L480.45 288.009L482.658 279.993H484.722L485.634 291.017ZM493.831 289.049C493.831 289.39 493.889 289.646 494.007 289.817C494.124 289.977 494.3 290.099 494.535 290.185L494.199 291.209C493.761 291.155 493.409 291.033 493.143 290.841C492.876 290.649 492.679 290.35 492.551 289.945C491.985 290.787 491.148 291.209 490.039 291.209C489.207 291.209 488.551 290.974 488.071 290.505C487.591 290.035 487.351 289.422 487.351 288.665C487.351 287.769 487.671 287.081 488.311 286.601C488.961 286.121 489.879 285.881 491.063 285.881H492.359V285.257C492.359 284.659 492.215 284.233 491.927 283.977C491.639 283.721 491.196 283.593 490.599 283.593C489.98 283.593 489.223 283.742 488.327 284.041L487.959 282.969C489.004 282.585 489.975 282.393 490.871 282.393C491.863 282.393 492.604 282.638 493.095 283.129C493.585 283.609 493.831 284.297 493.831 285.193V289.049ZM490.375 290.105C491.217 290.105 491.879 289.667 492.359 288.793V286.857H491.255C489.697 286.857 488.919 287.433 488.919 288.585C488.919 289.086 489.041 289.465 489.287 289.721C489.532 289.977 489.895 290.105 490.375 290.105ZM498.378 291.209C497.834 291.209 497.402 291.049 497.082 290.729C496.772 290.398 496.618 289.939 496.618 289.353V279.193L498.09 279.017V289.321C498.09 289.555 498.127 289.726 498.202 289.833C498.287 289.939 498.426 289.993 498.618 289.993C498.82 289.993 499.002 289.961 499.162 289.897L499.546 290.921C499.194 291.113 498.804 291.209 498.378 291.209ZM502.857 282.585V291.017H501.385V282.585H502.857ZM502.105 278.537C502.414 278.537 502.665 278.633 502.857 278.825C503.049 279.017 503.145 279.257 503.145 279.545C503.145 279.833 503.049 280.073 502.857 280.265C502.665 280.446 502.414 280.537 502.105 280.537C501.806 280.537 501.561 280.446 501.369 280.265C501.177 280.073 501.081 279.833 501.081 279.545C501.081 279.257 501.177 279.017 501.369 278.825C501.561 278.633 501.806 278.537 502.105 278.537ZM509.757 282.393C510.717 282.393 511.479 282.782 512.045 283.561C512.61 284.329 512.893 285.406 512.893 286.793C512.893 287.667 512.759 288.441 512.493 289.113C512.226 289.774 511.842 290.291 511.341 290.665C510.839 291.027 510.253 291.209 509.581 291.209C508.695 291.209 507.949 290.835 507.341 290.089L507.197 291.017H505.901V279.193L507.373 279.017V283.641C507.981 282.809 508.775 282.393 509.757 282.393ZM509.229 290.041C509.879 290.041 510.386 289.779 510.749 289.257C511.122 288.723 511.309 287.902 511.309 286.793C511.309 285.651 511.138 284.83 510.797 284.329C510.455 283.817 509.97 283.561 509.341 283.561C508.594 283.561 507.938 283.998 507.373 284.873V288.905C507.597 289.257 507.869 289.534 508.189 289.737C508.519 289.939 508.866 290.041 509.229 290.041ZM521.673 291.017H520.409L520.297 289.705C519.977 290.227 519.609 290.611 519.193 290.857C518.777 291.091 518.27 291.209 517.673 291.209C516.937 291.209 516.361 290.985 515.945 290.537C515.529 290.089 515.321 289.454 515.321 288.633V282.585H516.793V288.473C516.793 289.049 516.894 289.459 517.097 289.705C517.299 289.939 517.63 290.057 518.089 290.057C518.91 290.057 519.614 289.571 520.201 288.601V282.585H521.673V291.017ZM525.097 288.985C525.417 288.985 525.684 289.091 525.897 289.305C526.111 289.518 526.217 289.779 526.217 290.089C526.217 290.419 526.121 290.798 525.929 291.225L524.857 293.673H523.801L524.441 291.017C524.303 290.91 524.191 290.777 524.105 290.617C524.031 290.457 523.993 290.281 523.993 290.089C523.993 289.779 524.1 289.518 524.313 289.305C524.527 289.091 524.788 288.985 525.097 288.985ZM514.368 298.801C515.029 298.801 515.584 298.886 516.032 299.057C516.491 299.227 516.955 299.505 517.424 299.889L516.592 300.865C515.92 300.321 515.211 300.049 514.464 300.049C513.547 300.049 512.805 300.401 512.24 301.105C511.685 301.809 511.408 302.939 511.408 304.497C511.408 306.011 511.685 307.131 512.24 307.857C512.795 308.571 513.531 308.929 514.448 308.929C514.917 308.929 515.328 308.849 515.68 308.689C516.032 308.529 516.405 308.305 516.8 308.017L517.552 308.977C517.211 309.329 516.773 309.622 516.24 309.857C515.707 310.091 515.093 310.209 514.4 310.209C513.504 310.209 512.704 309.99 512 309.553C511.307 309.105 510.763 308.454 510.368 307.601C509.984 306.737 509.792 305.702 509.792 304.497C509.792 303.291 509.995 302.262 510.4 301.409C510.805 300.545 511.355 299.894 512.048 299.457C512.741 299.019 513.515 298.801 514.368 298.801ZM525.337 310.017L524.505 307.249H520.329L519.497 310.017H517.961L521.497 298.993H523.417L526.937 310.017H525.337ZM520.697 306.017H524.137L522.425 300.257L520.697 306.017Z" fill="white"/>
<path d="M626.115 48.07C626.776 48.07 627.331 48.1553 627.779 48.326C628.237 48.4967 628.701 48.774 629.171 49.158L628.339 50.134C627.667 49.59 626.957 49.318 626.211 49.318C625.293 49.318 624.552 49.67 623.987 50.374C623.432 51.078 623.155 52.2087 623.155 53.766C623.155 55.2807 623.432 56.4007 623.987 57.126C624.541 57.8407 625.277 58.198 626.195 58.198C626.664 58.198 627.075 58.118 627.427 57.958C627.779 57.798 628.152 57.574 628.547 57.286L629.299 58.246C628.957 58.598 628.52 58.8913 627.987 59.126C627.453 59.3607 626.84 59.478 626.147 59.478C625.251 59.478 624.451 59.2593 623.747 58.822C623.053 58.374 622.509 57.7233 622.115 56.87C621.731 56.006 621.539 54.9713 621.539 53.766C621.539 52.5607 621.741 51.5313 622.147 50.678C622.552 49.814 623.101 49.1633 623.795 48.726C624.488 48.2887 625.261 48.07 626.115 48.07ZM637.138 59.286H635.874L635.762 57.974C635.442 58.4967 635.074 58.8807 634.658 59.126C634.242 59.3607 633.736 59.478 633.138 59.478C632.402 59.478 631.826 59.254 631.41 58.806C630.994 58.358 630.786 57.7233 630.786 56.902V50.854H632.258V56.742C632.258 57.318 632.36 57.7287 632.562 57.974C632.765 58.2087 633.096 58.326 633.554 58.326C634.376 58.326 635.08 57.8407 635.666 56.87V50.854H637.138V59.286ZM643.843 50.662C644.141 50.662 644.419 50.694 644.675 50.758L644.403 52.198C644.147 52.134 643.901 52.102 643.667 52.102C643.144 52.102 642.723 52.294 642.403 52.678C642.083 53.062 641.832 53.6593 641.651 54.47V59.286H640.179V50.854H641.443L641.587 52.566C641.811 51.9367 642.115 51.462 642.499 51.142C642.883 50.822 643.331 50.662 643.843 50.662ZM650.015 50.662C650.313 50.662 650.591 50.694 650.847 50.758L650.575 52.198C650.319 52.134 650.073 52.102 649.839 52.102C649.316 52.102 648.895 52.294 648.575 52.678C648.255 53.062 648.004 53.6593 647.823 54.47V59.286H646.351V50.854H647.615L647.759 52.566C647.983 51.9367 648.287 51.462 648.671 51.142C649.055 50.822 649.503 50.662 650.015 50.662ZM658.406 54.822C658.406 55.0673 658.395 55.318 658.374 55.574H652.998C653.062 56.502 653.297 57.1847 653.702 57.622C654.107 58.0593 654.63 58.278 655.27 58.278C655.675 58.278 656.049 58.2193 656.39 58.102C656.731 57.9847 657.089 57.798 657.462 57.542L658.102 58.422C657.206 59.126 656.225 59.478 655.158 59.478C653.985 59.478 653.067 59.094 652.406 58.326C651.755 57.558 651.43 56.502 651.43 55.158C651.43 54.2833 651.569 53.51 651.846 52.838C652.134 52.1553 652.539 51.622 653.062 51.238C653.595 50.854 654.219 50.662 654.934 50.662C656.054 50.662 656.913 51.03 657.51 51.766C658.107 52.502 658.406 53.5207 658.406 54.822ZM656.95 54.39C656.95 53.558 656.785 52.9233 656.454 52.486C656.123 52.0487 655.627 51.83 654.966 51.83C653.761 51.83 653.105 52.7153 652.998 54.486H656.95V54.39ZM664.725 50.662C665.493 50.662 666.09 50.8913 666.517 51.35C666.954 51.8087 667.173 52.438 667.173 53.238V59.286H665.701V53.446C665.701 52.8487 665.589 52.4273 665.365 52.182C665.141 51.9367 664.81 51.814 664.373 51.814C663.925 51.814 663.53 51.942 663.189 52.198C662.848 52.454 662.528 52.822 662.229 53.302V59.286H660.757V50.854H662.021L662.149 52.102C662.448 51.654 662.816 51.302 663.253 51.046C663.701 50.79 664.192 50.662 664.725 50.662ZM674.388 58.902C673.833 59.286 673.204 59.478 672.5 59.478C671.785 59.478 671.225 59.2753 670.82 58.87C670.425 58.454 670.228 57.8567 670.228 57.078V51.99H668.756V50.854H670.228V48.95L671.7 48.774V50.854H673.7L673.54 51.99H671.7V57.014C671.7 57.4513 671.775 57.7713 671.924 57.974C672.084 58.166 672.345 58.262 672.708 58.262C673.039 58.262 673.412 58.15 673.828 57.926L674.388 58.902ZM615.404 67.262V76.958H619.932L619.756 78.286H613.884V67.262H615.404ZM624.534 69.662C625.718 69.662 626.636 70.0567 627.286 70.846C627.948 71.6353 628.278 72.7073 628.278 74.062C628.278 74.9367 628.129 75.71 627.83 76.382C627.532 77.0433 627.1 77.5607 626.534 77.934C625.969 78.2967 625.297 78.478 624.518 78.478C623.334 78.478 622.412 78.0833 621.75 77.294C621.089 76.5047 620.758 75.4327 620.758 74.078C620.758 73.2033 620.908 72.4353 621.206 71.774C621.505 71.102 621.937 70.5847 622.502 70.222C623.068 69.8487 623.745 69.662 624.534 69.662ZM624.534 70.846C623.073 70.846 622.342 71.9233 622.342 74.078C622.342 76.222 623.068 77.294 624.518 77.294C625.969 77.294 626.694 76.2167 626.694 74.062C626.694 71.918 625.974 70.846 624.534 70.846ZM633.782 69.662C634.283 69.662 634.742 69.7367 635.158 69.886C635.574 70.0247 635.974 70.254 636.358 70.574L635.654 71.502C635.355 71.2887 635.062 71.134 634.774 71.038C634.497 70.9313 634.187 70.878 633.846 70.878C633.163 70.878 632.63 71.15 632.246 71.694C631.873 72.238 631.686 73.0433 631.686 74.11C631.686 75.1767 631.873 75.966 632.246 76.478C632.619 76.9793 633.153 77.23 633.846 77.23C634.177 77.23 634.481 77.182 634.758 77.086C635.035 76.9793 635.345 76.814 635.686 76.59L636.358 77.55C635.59 78.1687 634.731 78.478 633.782 78.478C632.641 78.478 631.739 78.094 631.078 77.326C630.427 76.558 630.102 75.4967 630.102 74.142C630.102 73.246 630.251 72.462 630.55 71.79C630.849 71.118 631.27 70.5953 631.814 70.222C632.369 69.8487 633.025 69.662 633.782 69.662ZM643.874 76.318C643.874 76.6593 643.933 76.9153 644.05 77.086C644.168 77.246 644.344 77.3687 644.578 77.454L644.242 78.478C643.805 78.4247 643.453 78.302 643.186 78.11C642.92 77.918 642.722 77.6193 642.594 77.214C642.029 78.0567 641.192 78.478 640.082 78.478C639.25 78.478 638.594 78.2433 638.114 77.774C637.634 77.3047 637.394 76.6913 637.394 75.934C637.394 75.038 637.714 74.35 638.354 73.87C639.005 73.39 639.922 73.15 641.106 73.15H642.402V72.526C642.402 71.9287 642.258 71.502 641.97 71.246C641.682 70.99 641.24 70.862 640.642 70.862C640.024 70.862 639.266 71.0113 638.37 71.31L638.002 70.238C639.048 69.854 640.018 69.662 640.914 69.662C641.906 69.662 642.648 69.9073 643.138 70.398C643.629 70.878 643.874 71.566 643.874 72.462V76.318ZM640.418 77.374C641.261 77.374 641.922 76.9367 642.402 76.062V74.126H641.298C639.741 74.126 638.962 74.702 638.962 75.854C638.962 76.3553 639.085 76.734 639.33 76.99C639.576 77.246 639.938 77.374 640.418 77.374ZM651.154 77.902C650.599 78.286 649.97 78.478 649.266 78.478C648.551 78.478 647.991 78.2753 647.586 77.87C647.191 77.454 646.994 76.8567 646.994 76.078V70.99H645.522V69.854H646.994V67.95L648.466 67.774V69.854H650.466L650.306 70.99H648.466V76.014C648.466 76.4513 648.54 76.7713 648.69 76.974C648.85 77.166 649.111 77.262 649.474 77.262C649.804 77.262 650.178 77.15 650.594 76.926L651.154 77.902ZM654.151 69.854V78.286H652.679V69.854H654.151ZM653.399 65.806C653.708 65.806 653.959 65.902 654.151 66.094C654.343 66.286 654.439 66.526 654.439 66.814C654.439 67.102 654.343 67.342 654.151 67.534C653.959 67.7153 653.708 67.806 653.399 67.806C653.1 67.806 652.855 67.7153 652.663 67.534C652.471 67.342 652.375 67.102 652.375 66.814C652.375 66.526 652.471 66.286 652.663 66.094C652.855 65.902 653.1 65.806 653.399 65.806ZM660.362 69.662C661.546 69.662 662.464 70.0567 663.114 70.846C663.776 71.6353 664.106 72.7073 664.106 74.062C664.106 74.9367 663.957 75.71 663.658 76.382C663.36 77.0433 662.928 77.5607 662.362 77.934C661.797 78.2967 661.125 78.478 660.346 78.478C659.162 78.478 658.24 78.0833 657.578 77.294C656.917 76.5047 656.586 75.4327 656.586 74.078C656.586 73.2033 656.736 72.4353 657.034 71.774C657.333 71.102 657.765 70.5847 658.33 70.222C658.896 69.8487 659.573 69.662 660.362 69.662ZM660.362 70.846C658.901 70.846 658.17 71.9233 658.17 74.078C658.17 76.222 658.896 77.294 660.346 77.294C661.797 77.294 662.522 76.2167 662.522 74.062C662.522 71.918 661.802 70.846 660.362 70.846ZM670.506 69.662C671.274 69.662 671.871 69.8913 672.298 70.35C672.735 70.8087 672.954 71.438 672.954 72.238V78.286H671.482V72.446C671.482 71.8487 671.37 71.4273 671.146 71.182C670.922 70.9367 670.591 70.814 670.154 70.814C669.706 70.814 669.311 70.942 668.97 71.198C668.629 71.454 668.309 71.822 668.01 72.302V78.286H666.538V69.854H667.802L667.93 71.102C668.229 70.654 668.597 70.302 669.034 70.046C669.482 69.79 669.973 69.662 670.506 69.662Z" fill="white"/>
</svg>
