<svg width="12" height="14" viewBox="0 0 12 14" fill="none" xmlns="http://www.w3.org/2000/svg">
<path fill-rule="evenodd" clip-rule="evenodd" d="M5.92122 0.2948C7.09636 0.2948 8.23731 0.708526 9.1369 1.45986V1.45983C10.312 2.44068 11.0032 3.83532 11.0868 5.38588C11.1669 6.91674 10.6182 8.4145 9.582 9.49486L6.14718 13.0293C6.01413 13.1668 5.78335 13.1656 5.6503 13.0281L2.26401 9.4974C1.22548 8.41459 0.6756 6.91561 0.756845 5.38591C0.839256 3.83542 1.53162 2.44077 2.70554 1.45986C3.60396 0.708526 4.74612 0.2948 5.92122 0.2948ZM3.61338 5.68443C3.61338 7.01154 4.64835 8.09067 5.92121 8.09067C7.19404 8.09067 8.23022 7.01157 8.22904 5.68443C8.22904 4.35733 7.19407 3.2782 5.92121 3.2782C4.64838 3.2782 3.61338 4.3573 3.61338 5.68443Z" fill="white"/>
<path d="M5.92122 4.5116C5.30069 4.5116 4.79672 5.03705 4.79672 5.68404C4.79672 6.33103 5.30069 6.85648 5.92122 6.85648C6.54174 6.85648 7.04571 6.33103 7.04571 5.68404C7.04571 5.03705 6.54174 4.5116 5.92122 4.5116Z" fill="white"/>
</svg>
