<svg width="50" height="38" viewBox="0 0 50 38" fill="none" xmlns="http://www.w3.org/2000/svg">
<path fill-rule="evenodd" clip-rule="evenodd" d="M47.7707 25.1264V28.2764L47.7703 28.2765C48.3173 28.4095 48.7294 28.9836 48.7294 29.6664V30.7991C48.7294 31.4863 48.3173 32.0582 47.7703 32.1912V32.22H41.4743C41.1258 34.7892 39.247 36.7599 36.9804 36.7599C34.7137 36.7599 32.8349 34.7892 32.4883 32.22H15.8181C15.4697 34.7892 13.5909 36.7599 11.3242 36.7599C9.05756 36.7599 7.17684 34.787 6.83029 32.22H3.17184L2.45438 32.2222C1.79126 32.2222 1.25363 31.5838 1.25363 30.8013V29.6686C1.25363 28.8839 1.79313 28.2477 2.45438 28.2477H3.17184V15.4816C3.17184 11.569 5.86188 8.38578 9.16815 8.38578L14.7017 8.38135V6.11806C8.86507 5.45972 3.91951 4.22942 2.42278 2.45825C2.19986 2.1967 2.14741 1.79323 2.29352 1.46294C2.43964 1.13486 2.74687 0.953094 3.05783 1.0196C7.83081 2.03041 15.2528 2.16563 21.8802 2.16563C23.2889 2.16563 24.6733 2.16119 26.0033 2.15454C26.3416 2.15333 26.6764 2.15195 27.0073 2.15058L27.0078 2.15058H27.0079H27.0079H27.0079H27.0079H27.008H27.008C27.8842 2.14696 28.7331 2.14346 29.5474 2.14346L35.7217 2.14568H35.7235C39.9028 2.14568 42.4766 2.11242 45.8147 1.91957C46.1444 1.90402 46.4498 2.15674 46.5415 2.5358C46.6333 2.91488 46.4928 3.32055 46.2025 3.5134C45.7211 3.83261 45.1216 4.12964 44.4117 4.40452V6.12694C44.4117 6.89395 44.067 7.55672 43.4881 7.90254C43.2427 8.04884 42.9843 8.12199 42.7276 8.12199C42.3792 8.12199 42.0326 7.98899 41.7329 7.7252L39.412 5.68805C36.456 6.19791 32.7958 6.52156 28.5885 6.63682V8.38802L33.6219 8.3858C36.8291 8.3858 39.787 9.656 42.1622 11.7907L42.3589 11.9725C44.3464 13.8233 45.905 16.2905 46.8285 19.1301L46.8341 19.1434L46.8472 19.1811C46.8603 19.2252 46.8745 19.2681 46.8886 19.3107C46.9007 19.3473 46.9128 19.3836 46.924 19.4205L47.2106 20.3006H47.1694C47.559 21.8301 47.7707 23.4505 47.7707 25.1264ZM34.5832 18.6002H45.0676H45.0679C44.2624 16.634 43.1009 14.8894 41.6604 13.4929H34.5832C34.4539 13.4929 34.3434 13.6237 34.3434 13.7766V18.3165C34.3434 18.4694 34.4539 18.6002 34.5832 18.6002ZM42.9752 6.1269C42.9752 6.24439 42.9321 6.32863 42.8422 6.38183C42.7523 6.43503 42.6718 6.42616 42.5912 6.35523L41.3849 5.29784C41.9506 5.16927 42.4807 5.03183 42.9752 4.88774L42.9752 6.1269ZM25.0792 3.86246L25.0791 3.86246C24.037 3.86629 22.9676 3.87022 21.8826 3.87022L21.8831 3.87018C17.6251 3.87018 13.0393 3.81254 9.00998 3.50442C12.88 4.36898 18.4456 4.98078 24.9925 4.98078C31.0089 4.98078 36.2711 4.56408 40.0907 3.83032C38.7887 3.84806 37.3819 3.85471 35.726 3.85471H35.7241L29.548 3.84806C28.4278 3.84806 27.242 3.85249 26.0094 3.85914L25.0792 3.86246ZM16.141 6.27093C19.0276 6.54359 22.0735 6.68324 24.992 6.68324C25.7245 6.68324 26.4438 6.67659 27.15 6.6655V8.38566H16.141V6.27093ZM8.20776 31.3691C8.20776 33.404 9.60522 35.0577 11.3248 35.0577C13.0445 35.0577 14.4419 33.404 14.4419 31.3691C14.4419 29.3342 13.0445 27.6805 11.3248 27.6805C9.60522 27.6805 8.20776 29.3342 8.20776 31.3691ZM36.9809 35.0577C35.2612 35.0577 33.8638 33.404 33.8638 31.3691C33.8638 29.3342 35.2612 27.6805 36.9809 27.6805C38.7005 27.6805 40.0979 29.3342 40.0979 31.3691C40.0979 33.404 38.7005 35.0577 36.9809 35.0577ZM36.9808 25.978C39.2475 25.978 41.1282 27.9487 41.4747 30.5178H47.2911V29.9503H42.9751V28.2479H46.332V25.129C46.332 23.4398 46.0923 21.8194 45.6577 20.3031H34.5829C33.6575 20.3031 32.9045 19.412 32.9045 18.317V13.7771C32.9045 12.682 33.6575 11.7909 34.5829 11.7909H39.4854C37.7299 10.7069 35.7349 10.0885 33.6219 10.0885H9.16859C6.65469 10.0885 4.61099 12.5091 4.61099 15.4818V18.6007H11.8378V20.3031H4.61099V28.2479H5.57009V29.9503H2.69278V30.5178H6.83078C7.17922 27.9487 9.05806 25.978 11.3247 25.978C13.5914 25.978 15.4721 27.9487 15.8186 30.5178H32.4869C32.8353 27.9487 34.7142 25.978 36.9808 25.978Z" fill="white"/>
<path d="M47.7707 28.2764L47.868 28.5602L48.0707 28.4907V28.2764H47.7707ZM47.7703 28.2765L47.6731 27.9927L46.7019 28.3254L47.6994 28.568L47.7703 28.2765ZM47.7703 32.1912L47.6994 31.8997L47.4703 31.9554V32.1912H47.7703ZM47.7703 32.22V32.52H48.0703V32.22H47.7703ZM41.4743 32.22V31.92H41.2122L41.177 32.1797L41.4743 32.22ZM32.4883 32.22L32.7856 32.1799L32.7506 31.92H32.4883V32.22ZM15.8181 32.22V31.92H15.5561L15.5209 32.1797L15.8181 32.22ZM6.83029 32.22L7.12759 32.1799L7.09251 31.92H6.83029V32.22ZM3.17184 32.22V31.92L3.17091 31.92L3.17184 32.22ZM2.45438 32.2222V32.5223L2.45531 32.5222L2.45438 32.2222ZM3.17184 28.2477V28.5477H3.47184V28.2477H3.17184ZM9.16815 8.38578V8.68578L9.16839 8.68578L9.16815 8.38578ZM14.7017 8.38135L14.7019 8.68135L15.0017 8.68111V8.38135H14.7017ZM14.7017 6.11806H15.0017V5.84999L14.7353 5.81995L14.7017 6.11806ZM2.42278 2.45825L2.65192 2.26461L2.6511 2.26365L2.42278 2.45825ZM2.29352 1.46294L2.01948 1.34089L2.01917 1.34157L2.29352 1.46294ZM3.05783 1.0196L2.99509 1.31296L2.99568 1.31309L3.05783 1.0196ZM26.0033 2.15454L26.0022 1.85455L26.0018 1.85455L26.0033 2.15454ZM27.0073 2.15058L27.0085 2.45058H27.0086L27.0073 2.15058ZM27.0078 2.15058V1.85058L27.0066 1.85058L27.0078 2.15058ZM27.008 2.15058V2.45058L27.0092 2.45058L27.008 2.15058ZM29.5474 2.14346L29.5475 1.84346H29.5474V2.14346ZM35.7217 2.14568L35.7216 2.44568H35.7217V2.14568ZM45.8147 1.91957L45.8006 1.61989L45.7974 1.62007L45.8147 1.91957ZM46.5415 2.5358L46.8331 2.4652V2.46519L46.5415 2.5358ZM46.2025 3.5134L46.3683 3.76343L46.3685 3.7633L46.2025 3.5134ZM44.4117 4.40452L44.3033 4.12475L44.1117 4.19897V4.40452H44.4117ZM43.4881 7.90254L43.6418 8.16021L43.642 8.16007L43.4881 7.90254ZM41.7329 7.7252L41.9311 7.5L41.9308 7.49973L41.7329 7.7252ZM39.412 5.68805L39.6099 5.46258L39.5022 5.36806L39.361 5.39242L39.412 5.68805ZM28.5885 6.63682L28.5803 6.33694L28.2885 6.34493V6.63682H28.5885ZM28.5885 8.38802H28.2885V8.68815L28.5886 8.68802L28.5885 8.38802ZM33.6219 8.3858V8.0858H33.6218L33.6219 8.3858ZM42.1622 11.7907L42.3659 11.5703L42.3628 11.5676L42.1622 11.7907ZM42.3589 11.9725L42.5634 11.7529L42.5625 11.7521L42.3589 11.9725ZM46.8285 19.1301L46.5432 19.2229L46.5471 19.2351L46.5521 19.2469L46.8285 19.1301ZM46.8341 19.1434L47.1174 19.0448L47.1142 19.0356L47.1104 19.0267L46.8341 19.1434ZM46.8472 19.1811L47.1351 19.0956L47.1305 19.0825L46.8472 19.1811ZM46.8886 19.3107L47.1734 19.2164L47.1734 19.2164L46.8886 19.3107ZM46.924 19.4205L46.637 19.5081L46.6388 19.5134L46.924 19.4205ZM47.2106 20.3006V20.6006H47.6238L47.4959 20.2077L47.2106 20.3006ZM47.1694 20.3006V20.0006H46.7834L46.8787 20.3746L47.1694 20.3006ZM45.0679 18.6002V18.9002H45.515L45.3455 18.4865L45.0679 18.6002ZM41.6604 13.4929L41.8692 13.2775L41.782 13.1929H41.6604V13.4929ZM42.8422 6.38183L42.6895 6.12364L42.6895 6.12364L42.8422 6.38183ZM42.9752 6.1269L42.6752 6.1269V6.1269H42.9752ZM42.5912 6.35523L42.7895 6.13008L42.789 6.12962L42.5912 6.35523ZM41.3849 5.29784L41.3184 5.0053L40.7447 5.13567L41.1871 5.52344L41.3849 5.29784ZM42.9752 4.88774L43.2752 4.88774L43.2752 4.48785L42.8913 4.59972L42.9752 4.88774ZM25.0791 3.86246L25.0802 4.16246L25.0809 4.16245L25.0791 3.86246ZM25.0792 3.86246L25.0781 3.56246L25.0774 3.56246L25.0792 3.86246ZM21.8826 3.87022L21.8504 3.57196L21.8826 4.17022V3.87022ZM21.8831 3.87018L21.9153 4.16844L21.8831 3.57018V3.87018ZM9.00998 3.50442L9.03285 3.20529L8.94457 3.7972L9.00998 3.50442ZM40.0907 3.83032L40.1473 4.12494L40.0866 3.53035L40.0907 3.83032ZM35.7241 3.85471L35.7238 4.15471H35.7241V3.85471ZM29.548 3.84806L29.5483 3.54806H29.548V3.84806ZM26.0094 3.85914L26.0105 4.15914L26.011 4.15914L26.0094 3.85914ZM16.141 6.27093L16.1692 5.97226L15.841 5.94126V6.27093H16.141ZM27.15 6.6655H27.45V6.36076L27.1453 6.36554L27.15 6.6655ZM27.15 8.38566V8.68566H27.45V8.38566H27.15ZM16.141 8.38566H15.841V8.68566H16.141V8.38566ZM41.4747 30.5178L41.1774 30.5579L41.2125 30.8178H41.4747V30.5178ZM47.2911 30.5178V30.8178H47.5911V30.5178H47.2911ZM47.2911 29.9503H47.5911V29.6503H47.2911V29.9503ZM42.9751 29.9503H42.6751V30.2503H42.9751V29.9503ZM42.9751 28.2479V27.9479H42.6751V28.2479H42.9751ZM46.332 28.2479V28.5479H46.632V28.2479H46.332ZM45.6577 20.3031L45.9461 20.2205L45.8838 20.0031H45.6577V20.3031ZM39.4854 11.7909V12.0909H40.5422L39.643 11.5357L39.4854 11.7909ZM4.61099 18.6007H4.31099V18.9007H4.61099V18.6007ZM11.8378 18.6007H12.1378V18.3007H11.8378V18.6007ZM11.8378 20.3031V20.6031H12.1378V20.3031H11.8378ZM4.61099 20.3031V20.0031H4.31099V20.3031H4.61099ZM4.61099 28.2479H4.31099V28.5479H4.61099V28.2479ZM5.57009 28.2479H5.87009V27.9479H5.57009V28.2479ZM5.57009 29.9503V30.2503H5.87009V29.9503H5.57009ZM2.69278 29.9503V29.6503H2.39278V29.9503H2.69278ZM2.69278 30.5178H2.39278V30.8178H2.69278V30.5178ZM6.83078 30.5178V30.8178H7.09284L7.12806 30.5581L6.83078 30.5178ZM15.8186 30.5178L15.5213 30.5579L15.5564 30.8178H15.8186V30.5178ZM32.4869 30.5178V30.8178H32.7489L32.7842 30.5581L32.4869 30.5178ZM48.0707 28.2764V25.1264H47.4707V28.2764H48.0707ZM47.8675 28.5603L47.868 28.5602L47.6735 27.9925L47.6731 27.9927L47.8675 28.5603ZM49.0294 29.6664C49.0294 28.8751 48.5496 28.1573 47.8412 27.985L47.6994 28.568C48.085 28.6618 48.4294 29.0922 48.4294 29.6664H49.0294ZM49.0294 30.7991V29.6664H48.4294V30.7991H49.0294ZM47.8412 32.4827C48.5496 32.3105 49.0294 31.5948 49.0294 30.7991H48.4294C48.4294 31.3777 48.085 31.806 47.6994 31.8997L47.8412 32.4827ZM48.0703 32.22V32.1912H47.4703V32.22H48.0703ZM41.4743 32.52H47.7703V31.92H41.4743V32.52ZM36.9804 37.0599C39.4367 37.0599 41.4088 34.9354 41.7716 32.2604L41.177 32.1797C40.8429 34.643 39.0573 36.4599 36.9804 36.4599V37.0599ZM32.191 32.2601C32.5519 34.9353 34.524 37.0599 36.9804 37.0599V36.4599C34.9034 36.4599 33.1179 34.643 32.7856 32.1799L32.191 32.2601ZM15.8181 32.52H32.4883V31.92H15.8181V32.52ZM11.3242 37.0599C13.7805 37.0599 15.7526 34.9354 16.1154 32.2604L15.5209 32.1797C15.1868 34.643 13.4012 36.4599 11.3242 36.4599V37.0599ZM6.53298 32.2602C6.89386 34.9332 8.86793 37.0599 11.3242 37.0599V36.4599C9.2472 36.4599 7.45982 34.6408 7.12759 32.1799L6.53298 32.2602ZM3.17184 32.52H6.83029V31.92H3.17184V32.52ZM2.45531 32.5222L3.17276 32.52L3.17091 31.92L2.45345 31.9223L2.45531 32.5222ZM0.953632 30.8013C0.953632 31.6999 1.57994 32.5222 2.45438 32.5222V31.9223C2.00257 31.9223 1.55363 31.4678 1.55363 30.8013H0.953632ZM0.953632 29.6686V30.8013H1.55363V29.6686H0.953632ZM2.45438 27.9477C1.58236 27.9477 0.953632 28.7672 0.953632 29.6686H1.55363C1.55363 29.0005 2.00389 28.5477 2.45438 28.5477V27.9477ZM3.17184 27.9477H2.45438V28.5477H3.17184V27.9477ZM2.87184 15.4816V28.2477H3.47184V15.4816H2.87184ZM9.16815 8.08578C5.65084 8.08578 2.87184 11.4527 2.87184 15.4816H3.47184C3.47184 11.6854 6.07292 8.68578 9.16815 8.68578V8.08578ZM14.7015 8.08135L9.16791 8.08578L9.16839 8.68578L14.7019 8.68135L14.7015 8.08135ZM14.4017 6.11806V8.38135H15.0017V6.11806H14.4017ZM2.19364 2.65189C2.60584 3.13967 3.23709 3.57081 4.0201 3.95417C4.80659 4.33923 5.76562 4.68539 6.85284 4.99406C9.02737 5.61142 11.7405 6.08596 14.6681 6.41617L14.7353 5.81995C11.8262 5.49182 9.1483 5.02204 7.01671 4.41687C5.95087 4.11427 5.02809 3.77962 4.28393 3.41529C3.53629 3.04925 2.98808 2.66242 2.65192 2.26461L2.19364 2.65189ZM2.01917 1.34157C1.82942 1.77052 1.89208 2.29807 2.19445 2.65285L2.6511 2.26365C2.50764 2.09533 2.4654 1.81595 2.56788 1.58431L2.01917 1.34157ZM3.12057 0.726231C2.64304 0.624103 2.2108 0.911321 2.01948 1.34089L2.56757 1.585C2.66849 1.35841 2.85071 1.28209 2.99509 1.31296L3.12057 0.726231ZM21.8802 1.86563C15.2455 1.86563 7.85648 1.72919 3.11999 0.726107L2.99568 1.31309C7.80514 2.33163 15.2602 2.46563 21.8802 2.46563V1.86563ZM26.0018 1.85455C24.6721 1.8612 23.2883 1.86563 21.8802 1.86563V2.46563C23.2895 2.46563 24.6744 2.46119 26.0048 2.45454L26.0018 1.85455ZM27.0061 1.85058C26.6751 1.85195 26.3404 1.85333 26.0022 1.85455L26.0043 2.45454C26.3428 2.45333 26.6776 2.45195 27.0085 2.45058L27.0061 1.85058ZM27.0066 1.85058L27.0061 1.85059L27.0086 2.45058L27.0091 2.45058L27.0066 1.85058ZM27.0079 1.85058H27.0078V2.45058H27.0079V1.85058ZM27.0079 1.85058H27.0079V2.45058H27.0079V1.85058ZM27.0079 1.85058H27.0079V2.45058H27.0079V1.85058ZM27.0079 1.85058H27.0079V2.45058H27.0079V1.85058ZM27.008 1.85058H27.0079V2.45058H27.008V1.85058ZM27.008 1.85058H27.008V2.45058H27.008V1.85058ZM29.5474 1.84346C28.7324 1.84346 27.8829 1.84697 27.0068 1.85058L27.0092 2.45058C27.8856 2.44696 28.7339 2.44346 29.5474 2.44346V1.84346ZM35.7218 1.84568L29.5475 1.84346L29.5473 2.44346L35.7216 2.44568L35.7218 1.84568ZM35.7235 1.84568H35.7217V2.44568H35.7235V1.84568ZM45.7974 1.62007C42.468 1.81242 39.9009 1.84568 35.7235 1.84568V2.44568C39.9048 2.44568 42.4853 2.41242 45.832 2.21907L45.7974 1.62007ZM46.8331 2.46519C46.7146 1.97595 46.3023 1.59624 45.8006 1.6199L45.8289 2.21924C45.9866 2.2118 46.1849 2.33753 46.25 2.6064L46.8331 2.46519ZM46.3685 3.7633C46.7796 3.49021 46.9499 2.94749 46.8331 2.4652L46.25 2.6064C46.3168 2.88227 46.2061 3.15088 46.0365 3.2635L46.3685 3.7633ZM44.52 4.68428C45.2436 4.40411 45.8638 4.09792 46.3683 3.76343L46.0367 3.26337C45.5783 3.5673 44.9996 3.85517 44.3033 4.12475L44.52 4.68428ZM44.7117 6.12694V4.40452H44.1117V6.12694H44.7117ZM43.642 8.16007C44.3254 7.75178 44.7117 6.9822 44.7117 6.12694H44.1117C44.1117 6.8057 43.8085 7.36167 43.3343 7.645L43.642 8.16007ZM42.7276 8.42199C43.0427 8.42199 43.3538 8.33187 43.6418 8.16021L43.3345 7.64486C43.1316 7.7658 42.9258 7.82199 42.7276 7.82199V8.42199ZM41.5347 7.9504C41.8842 8.25798 42.2998 8.42199 42.7276 8.42199V7.82199C42.4586 7.82199 42.1811 7.72 41.9311 7.5L41.5347 7.9504ZM39.2141 5.91352L41.535 7.95067L41.9308 7.49973L39.6099 5.46258L39.2141 5.91352ZM28.5967 6.93671C32.8134 6.82119 36.4887 6.4967 39.463 5.98368L39.361 5.39242C36.4234 5.89912 32.7782 6.22193 28.5803 6.33694L28.5967 6.93671ZM28.8885 8.38802V6.63682H28.2885V8.38802H28.8885ZM33.6218 8.0858L28.5884 8.08802L28.5886 8.68802L33.622 8.6858L33.6218 8.0858ZM42.3628 11.5676C39.939 9.38929 36.9116 8.0858 33.6219 8.0858V8.6858C36.7467 8.6858 39.6349 9.9227 41.9617 12.0138L42.3628 11.5676ZM42.5625 11.7521L42.3658 11.5704L41.9586 12.011L42.1553 12.1928L42.5625 11.7521ZM47.1138 19.0373C46.1756 16.1525 44.5906 13.6407 42.5634 11.7529L42.1545 12.192C44.1023 14.0058 45.6344 16.4284 46.5432 19.2229L47.1138 19.0373ZM47.1104 19.0267L47.1048 19.0134L46.5521 19.2469L46.5578 19.2602L47.1104 19.0267ZM47.1305 19.0825L47.1174 19.0448L46.5508 19.242L46.5639 19.2797L47.1305 19.0825ZM47.1734 19.2164C47.1591 19.1731 47.1464 19.1347 47.1348 19.0957L46.5596 19.2665C46.5743 19.3158 46.5899 19.363 46.6038 19.405L47.1734 19.2164ZM47.2109 19.3329C47.1985 19.2921 47.1853 19.2524 47.1734 19.2164L46.6038 19.405C46.6161 19.4421 46.627 19.4752 46.6371 19.5081L47.2109 19.3329ZM47.4959 20.2077L47.2093 19.3276L46.6388 19.5134L46.9254 20.3935L47.4959 20.2077ZM47.1694 20.6006H47.2106V20.0006H47.1694V20.6006ZM48.0707 25.1264C48.0707 23.4253 47.8559 21.7799 47.4601 20.2265L46.8787 20.3746C47.2622 21.8802 47.4707 23.4758 47.4707 25.1264H48.0707ZM45.0676 18.3002H34.5832V18.9002H45.0676V18.3002ZM45.0679 18.3002H45.0676V18.9002H45.0679V18.3002ZM41.4516 13.7083C42.8605 15.0741 43.9994 16.7834 44.7903 18.7139L45.3455 18.4865C44.5254 16.4846 43.3414 14.7047 41.8692 13.2775L41.4516 13.7083ZM34.5832 13.7929H41.6604V13.1929H34.5832V13.7929ZM34.6434 13.7766C34.6434 13.7713 34.6458 13.7689 34.644 13.771C34.6425 13.7727 34.6236 13.7929 34.5832 13.7929V13.1929C34.2429 13.1929 34.0434 13.5073 34.0434 13.7766H34.6434ZM34.6434 18.3165V13.7766H34.0434V18.3165H34.6434ZM34.5832 18.3002C34.6236 18.3002 34.6425 18.3204 34.644 18.3221C34.6458 18.3242 34.6434 18.3218 34.6434 18.3165H34.0434C34.0434 18.5858 34.2429 18.9002 34.5832 18.9002V18.3002ZM42.995 6.64002C43.1912 6.52391 43.2752 6.33166 43.2752 6.1269H42.6752C42.6752 6.1493 42.6712 6.1499 42.6762 6.14024C42.6786 6.13558 42.6819 6.131 42.6855 6.12729C42.689 6.12371 42.691 6.12275 42.6895 6.12364L42.995 6.64002ZM42.3929 6.58037C42.4654 6.64418 42.5615 6.70057 42.6813 6.71338C42.8024 6.72633 42.9094 6.69069 42.995 6.64002L42.6895 6.12364C42.6852 6.12616 42.7069 6.1127 42.7451 6.11678C42.782 6.12073 42.7976 6.13721 42.7895 6.13008L42.3929 6.58037ZM41.1871 5.52344L42.3935 6.58083L42.789 6.12962L41.5826 5.07223L41.1871 5.52344ZM42.8913 4.59972C42.4029 4.74204 41.8786 4.87799 41.3184 5.0053L41.4513 5.59038C42.0226 5.46055 42.5586 5.32162 43.0592 5.17576L42.8913 4.59972ZM43.2752 6.12691L43.2752 4.88774L42.6752 4.88774L42.6752 6.1269L43.2752 6.12691ZM25.0809 4.16245L25.081 4.16245L25.0774 3.56246L25.0773 3.56246L25.0809 4.16245ZM21.8826 4.17022C22.9682 4.17022 24.0382 4.16629 25.0802 4.16246L25.078 3.56246C24.0359 3.56629 22.967 3.57023 21.8826 3.57023V4.17022ZM21.8508 3.57191L21.8504 3.57196L21.9148 4.16849L21.9153 4.16844L21.8508 3.57191ZM8.9871 3.80355C13.0286 4.1126 17.6241 4.17018 21.8831 4.17018V3.57018C17.6262 3.57018 13.05 3.51249 9.03285 3.20529L8.9871 3.80355ZM24.9925 4.68078C18.462 4.68078 12.919 4.0703 9.07539 3.21164L8.94457 3.7972C12.8409 4.66765 18.4293 5.28078 24.9925 5.28078V4.68078ZM40.0341 3.53571C36.2396 4.26464 30.9979 4.68078 24.9925 4.68078V5.28078C31.02 5.28078 36.3026 4.86351 40.1473 4.12494L40.0341 3.53571ZM35.726 4.15471C37.3826 4.15471 38.7909 4.14806 40.0947 4.1303L40.0866 3.53035C38.7865 3.54806 37.3812 3.55471 35.726 3.55471V4.15471ZM35.7241 4.15471H35.726V3.55471H35.7241V4.15471ZM29.5476 4.14806L35.7238 4.15471L35.7244 3.55471L29.5483 3.54806L29.5476 4.14806ZM26.011 4.15914C27.2433 4.15249 28.4285 4.14806 29.548 4.14806V3.54806C28.427 3.54806 27.2407 3.55249 26.0078 3.55915L26.011 4.15914ZM25.0803 4.16245L26.0105 4.15914L26.0083 3.55914L25.0781 3.56246L25.0803 4.16245ZM24.992 6.38324C22.0826 6.38324 19.0462 6.244 16.1692 5.97226L16.1128 6.5696C19.0091 6.84317 22.0644 6.98324 24.992 6.98324V6.38324ZM27.1453 6.36554C26.4404 6.3766 25.7227 6.38324 24.992 6.38324V6.98324C25.7263 6.98324 26.4472 6.97657 27.1547 6.96547L27.1453 6.36554ZM27.45 8.38566V6.6655H26.85V8.38566H27.45ZM16.141 8.68566H27.15V8.08566H16.141V8.68566ZM15.841 6.27093V8.38566H16.441V6.27093H15.841ZM11.3248 34.7577C9.81627 34.7577 8.50776 33.2877 8.50776 31.3691H7.90776C7.90776 33.5204 9.39418 35.3577 11.3248 35.3577V34.7577ZM14.1419 31.3691C14.1419 33.2877 12.8334 34.7577 11.3248 34.7577V35.3577C13.2555 35.3577 14.7419 33.5204 14.7419 31.3691H14.1419ZM11.3248 27.9805C12.8334 27.9805 14.1419 29.4505 14.1419 31.3691H14.7419C14.7419 29.2178 13.2555 27.3805 11.3248 27.3805V27.9805ZM8.50776 31.3691C8.50776 29.4505 9.81627 27.9805 11.3248 27.9805V27.3805C9.39418 27.3805 7.90776 29.2178 7.90776 31.3691H8.50776ZM33.5638 31.3691C33.5638 33.5204 35.0502 35.3577 36.9809 35.3577V34.7577C35.4723 34.7577 34.1638 33.2877 34.1638 31.3691H33.5638ZM36.9809 27.3805C35.0502 27.3805 33.5638 29.2178 33.5638 31.3691H34.1638C34.1638 29.4505 35.4723 27.9805 36.9809 27.9805V27.3805ZM40.3979 31.3691C40.3979 29.2178 38.9115 27.3805 36.9809 27.3805V27.9805C38.4894 27.9805 39.7979 29.4505 39.7979 31.3691H40.3979ZM36.9809 35.3577C38.9115 35.3577 40.3979 33.5204 40.3979 31.3691H39.7979C39.7979 33.2877 38.4894 34.7577 36.9809 34.7577V35.3577ZM41.772 30.4777C41.4112 27.8023 39.437 25.678 36.9808 25.678V26.278C39.0579 26.278 40.8452 28.095 41.1774 30.5579L41.772 30.4777ZM47.2911 30.2178H41.4747V30.8178H47.2911V30.2178ZM46.9911 29.9503V30.5178H47.5911V29.9503H46.9911ZM42.9751 30.2503H47.2911V29.6503H42.9751V30.2503ZM42.6751 28.2479V29.9503H43.2751V28.2479H42.6751ZM46.332 27.9479H42.9751V28.5479H46.332V27.9479ZM46.032 25.129V28.2479H46.632V25.129H46.032ZM45.3693 20.3858C45.7963 21.8757 46.032 23.4683 46.032 25.129H46.632C46.632 23.4113 46.3882 21.7631 45.9461 20.2205L45.3693 20.3858ZM34.5829 20.6031H45.6577V20.0031H34.5829V20.6031ZM32.6045 18.317C32.6045 19.5284 33.4465 20.6031 34.5829 20.6031V20.0031C33.8686 20.0031 33.2045 19.2957 33.2045 18.317H32.6045ZM32.6045 13.7771V18.317H33.2045V13.7771H32.6045ZM34.5829 11.4909C33.4465 11.4909 32.6045 12.5657 32.6045 13.7771H33.2045C33.2045 12.7984 33.8686 12.0909 34.5829 12.0909V11.4909ZM39.4854 11.4909H34.5829V12.0909H39.4854V11.4909ZM33.6219 10.3885C35.6749 10.3885 37.6158 10.9891 39.3277 12.0462L39.643 11.5357C37.844 10.4248 35.7949 9.78847 33.6219 9.78847V10.3885ZM9.16859 10.3885H33.6219V9.78847H9.16859V10.3885ZM4.91099 15.4818C4.91099 12.6254 6.8658 10.3885 9.16859 10.3885V9.78847C6.44358 9.78847 4.31099 12.3928 4.31099 15.4818H4.91099ZM4.91099 18.6007V15.4818H4.31099V18.6007H4.91099ZM11.8378 18.3007H4.61099V18.9007H11.8378V18.3007ZM12.1378 20.3031V18.6007H11.5378V20.3031H12.1378ZM4.61099 20.6031H11.8378V20.0031H4.61099V20.6031ZM4.91099 28.2479V20.3031H4.31099V28.2479H4.91099ZM5.57009 27.9479H4.61099V28.5479H5.57009V27.9479ZM5.87009 29.9503V28.2479H5.27009V29.9503H5.87009ZM2.69278 30.2503H5.57009V29.6503H2.69278V30.2503ZM2.99278 30.5178V29.9503H2.39278V30.5178H2.99278ZM6.83078 30.2178H2.69278V30.8178H6.83078V30.2178ZM11.3247 25.678C8.86837 25.678 6.8963 27.8025 6.5335 30.4775L7.12806 30.5581C7.46215 28.0948 9.24774 26.278 11.3247 26.278V25.678ZM16.1159 30.4777C15.7551 27.8023 13.7809 25.678 11.3247 25.678V26.278C13.4018 26.278 15.1891 28.095 15.5213 30.5579L16.1159 30.4777ZM32.4869 30.2178H15.8186V30.8178H32.4869V30.2178ZM36.9808 25.678C34.5245 25.678 32.5524 27.8025 32.1896 30.4775L32.7842 30.5581C33.1182 28.0948 34.9038 26.278 36.9808 26.278V25.678Z" fill="#222532"/>
<path fill-rule="evenodd" clip-rule="evenodd" d="M22.8341 13.7766V18.3165C22.8341 19.4115 22.081 20.3026 21.1556 20.3026H16.3601C15.4347 20.3026 14.6817 19.4115 14.6817 18.3165V13.7766C14.6817 12.6815 15.4347 11.7904 16.3601 11.7904H21.1556C22.081 11.7904 22.8341 12.6815 22.8341 13.7766ZM16.1204 13.7766V18.3165C16.1204 18.4717 16.2309 18.6002 16.3601 18.6002H21.1557C21.2849 18.6002 21.3954 18.4694 21.3954 18.3165V13.7766C21.3954 13.6237 21.2849 13.4929 21.1557 13.4929H16.3601C16.2309 13.4929 16.1204 13.6237 16.1204 13.7766Z" fill="white"/>
<path d="M23.1341 18.3165V13.7766H22.5341V18.3165H23.1341ZM21.1556 20.6026C22.2921 20.6026 23.1341 19.5279 23.1341 18.3165H22.5341C22.5341 19.2952 21.87 20.0026 21.1556 20.0026V20.6026ZM16.3601 20.6026H21.1556V20.0026H16.3601V20.6026ZM14.3817 18.3165C14.3817 19.5279 15.2237 20.6026 16.3601 20.6026V20.0026C15.6458 20.0026 14.9817 19.2952 14.9817 18.3165H14.3817ZM14.3817 13.7766V18.3165H14.9817V13.7766H14.3817ZM16.3601 11.4904C15.2237 11.4904 14.3817 12.5652 14.3817 13.7766H14.9817C14.9817 12.7979 15.6458 12.0904 16.3601 12.0904V11.4904ZM21.1556 11.4904H16.3601V12.0904H21.1556V11.4904ZM23.1341 13.7766C23.1341 12.5652 22.2921 11.4904 21.1556 11.4904V12.0904C21.87 12.0904 22.5341 12.7979 22.5341 13.7766H23.1341ZM16.4204 18.3165V13.7766H15.8204V18.3165H16.4204ZM16.3601 18.3002C16.3989 18.3002 16.4179 18.3194 16.4204 18.3223C16.4232 18.3255 16.4204 18.3236 16.4204 18.3165H15.8204C15.8204 18.5896 16.0212 18.9002 16.3601 18.9002V18.3002ZM21.1557 18.3002H16.3601V18.9002H21.1557V18.3002ZM21.0954 18.3165C21.0954 18.3218 21.0931 18.3242 21.0949 18.3221C21.0963 18.3204 21.1152 18.3002 21.1557 18.3002V18.9002C21.4959 18.9002 21.6954 18.5858 21.6954 18.3165H21.0954ZM21.0954 13.7766V18.3165H21.6954V13.7766H21.0954ZM21.1557 13.7929C21.1152 13.7929 21.0963 13.7727 21.0949 13.771C21.0931 13.7689 21.0954 13.7713 21.0954 13.7766H21.6954C21.6954 13.5073 21.4959 13.1929 21.1557 13.1929V13.7929ZM16.3601 13.7929H21.1557V13.1929H16.3601V13.7929ZM16.4204 13.7766C16.4204 13.7713 16.4227 13.7689 16.4209 13.771C16.4195 13.7727 16.4006 13.7929 16.3601 13.7929V13.1929C16.0198 13.1929 15.8204 13.5073 15.8204 13.7766H16.4204Z" fill="#222532"/>
<path fill-rule="evenodd" clip-rule="evenodd" d="M25.4716 11.7904H30.2671C31.1925 11.7904 31.9455 12.6815 31.9455 13.7766V18.3165C31.9455 19.4115 31.1925 20.3026 30.2671 20.3026H25.4716C24.5462 20.3026 23.7932 19.4115 23.7932 18.3165V13.7766C23.7932 12.6815 24.5462 11.7904 25.4716 11.7904ZM30.2671 18.6002C30.3964 18.6002 30.5069 18.4694 30.5069 18.3165V13.7766C30.5069 13.6237 30.3964 13.4929 30.2671 13.4929H25.4716C25.3423 13.4929 25.2318 13.6237 25.2318 13.7766V18.3165C25.2318 18.4694 25.3423 18.6002 25.4716 18.6002H30.2671Z" fill="white"/>
<path d="M30.2671 11.4904H25.4716V12.0904H30.2671V11.4904ZM32.2455 13.7766C32.2455 12.5652 31.4035 11.4904 30.2671 11.4904V12.0904C30.9814 12.0904 31.6455 12.7979 31.6455 13.7766H32.2455ZM32.2455 18.3165V13.7766H31.6455V18.3165H32.2455ZM30.2671 20.6026C31.4035 20.6026 32.2455 19.5279 32.2455 18.3165H31.6455C31.6455 19.2952 30.9814 20.0026 30.2671 20.0026V20.6026ZM25.4716 20.6026H30.2671V20.0026H25.4716V20.6026ZM23.4932 18.3165C23.4932 19.5279 24.3352 20.6026 25.4716 20.6026V20.0026C24.7572 20.0026 24.0932 19.2952 24.0932 18.3165H23.4932ZM23.4932 13.7766V18.3165H24.0932V13.7766H23.4932ZM25.4716 11.4904C24.3352 11.4904 23.4932 12.5652 23.4932 13.7766H24.0932C24.0932 12.7979 24.7572 12.0904 25.4716 12.0904V11.4904ZM30.2069 18.3165C30.2069 18.3218 30.2045 18.3242 30.2063 18.3221C30.2077 18.3204 30.2267 18.3002 30.2671 18.3002V18.9002C30.6074 18.9002 30.8069 18.5858 30.8069 18.3165H30.2069ZM30.2069 13.7766V18.3165H30.8069V13.7766H30.2069ZM30.2671 13.7929C30.2267 13.7929 30.2077 13.7727 30.2063 13.771C30.2045 13.7689 30.2069 13.7713 30.2069 13.7766H30.8069C30.8069 13.5073 30.6074 13.1929 30.2671 13.1929V13.7929ZM25.4716 13.7929H30.2671V13.1929H25.4716V13.7929ZM25.5318 13.7766C25.5318 13.7713 25.5342 13.7689 25.5324 13.771C25.5309 13.7727 25.512 13.7929 25.4716 13.7929V13.1929C25.1313 13.1929 24.9318 13.5073 24.9318 13.7766H25.5318ZM25.5318 18.3165V13.7766H24.9318V18.3165H25.5318ZM25.4716 18.3002C25.512 18.3002 25.5309 18.3204 25.5324 18.3221C25.5342 18.3242 25.5318 18.3218 25.5318 18.3165H24.9318C24.9318 18.5858 25.1313 18.9002 25.4716 18.9002V18.3002ZM30.2671 18.3002H25.4716V18.9002H30.2671V18.3002Z" fill="#222532"/>
<path fill-rule="evenodd" clip-rule="evenodd" d="M35.0626 31.3687C35.0626 30.1163 35.9225 29.0988 36.9808 29.0988C38.0392 29.0988 38.899 30.1185 38.899 31.3687C38.899 32.6211 38.0392 33.6386 36.9808 33.6386C35.9225 33.6386 35.0626 32.6211 35.0626 31.3687ZM36.5013 31.3687C36.5013 31.6812 36.7167 31.9362 36.9808 31.9362C37.245 31.9362 37.4604 31.6812 37.4604 31.3687C37.4604 31.0561 37.245 30.8012 36.9808 30.8012C36.7167 30.8012 36.5013 31.0561 36.5013 31.3687Z" fill="white"/>
<path d="M36.9808 28.7988C35.7114 28.7988 34.7626 29.9999 34.7626 31.3687H35.3626C35.3626 30.2326 36.1335 29.3988 36.9808 29.3988V28.7988ZM39.199 31.3687C39.199 30.0023 38.2504 28.7988 36.9808 28.7988V29.3988C37.828 29.3988 38.599 30.2346 38.599 31.3687H39.199ZM36.9808 33.9386C38.2502 33.9386 39.199 32.7375 39.199 31.3687H38.599C38.599 32.5048 37.8282 33.3386 36.9808 33.3386V33.9386ZM34.7626 31.3687C34.7626 32.7375 35.7114 33.9386 36.9808 33.9386V33.3386C36.1335 33.3386 35.3626 32.5048 35.3626 31.3687H34.7626ZM36.9808 31.6362C36.9277 31.6362 36.8013 31.5649 36.8013 31.3687H36.2013C36.2013 31.7976 36.5057 32.2362 36.9808 32.2362V31.6362ZM37.1604 31.3687C37.1604 31.5649 37.0339 31.6362 36.9808 31.6362V32.2362C37.456 32.2362 37.7604 31.7976 37.7604 31.3687H37.1604ZM36.9808 31.1012C37.0339 31.1012 37.1604 31.1725 37.1604 31.3687H37.7604C37.7604 30.9398 37.456 30.5012 36.9808 30.5012V31.1012ZM36.8013 31.3687C36.8013 31.1725 36.9277 31.1012 36.9808 31.1012V30.5012C36.5057 30.5012 36.2013 30.9398 36.2013 31.3687H36.8013Z" fill="#222532"/>
<path fill-rule="evenodd" clip-rule="evenodd" d="M9.40662 31.3687C9.40662 30.1163 10.2665 29.0988 11.3248 29.0988C12.3832 29.0988 13.243 30.1185 13.243 31.3687C13.243 32.6211 12.3832 33.6386 11.3248 33.6386C10.2665 33.6386 9.40662 32.6189 9.40662 31.3687ZM10.8452 31.3687C10.8452 31.6812 11.0607 31.9362 11.3248 31.9362C11.5889 31.9362 11.8043 31.6812 11.8043 31.3687C11.8043 31.0561 11.5889 30.8012 11.3248 30.8012C11.0607 30.8012 10.8452 31.0561 10.8452 31.3687Z" fill="white"/>
<path d="M11.3248 28.7988C10.0554 28.7988 9.10662 29.9999 9.10662 31.3687H9.70662C9.70662 30.2326 10.4775 29.3988 11.3248 29.3988V28.7988ZM13.543 31.3687C13.543 30.0023 12.5944 28.7988 11.3248 28.7988V29.3988C12.172 29.3988 12.943 30.2346 12.943 31.3687H13.543ZM11.3248 33.9386C12.5942 33.9386 13.543 32.7375 13.543 31.3687H12.943C12.943 32.5048 12.1722 33.3386 11.3248 33.3386V33.9386ZM9.10662 31.3687C9.10662 32.7351 10.0552 33.9386 11.3248 33.9386V33.3386C10.4777 33.3386 9.70662 32.5027 9.70662 31.3687H9.10662ZM11.3248 31.6362C11.2717 31.6362 11.1452 31.5649 11.1452 31.3687H10.5452C10.5452 31.7976 10.8496 32.2362 11.3248 32.2362V31.6362ZM11.5043 31.3687C11.5043 31.5649 11.3779 31.6362 11.3248 31.6362V32.2362C11.8 32.2362 12.1043 31.7976 12.1043 31.3687H11.5043ZM11.3248 31.1012C11.3779 31.1012 11.5043 31.1725 11.5043 31.3687H12.1043C12.1043 30.9398 11.8 30.5012 11.3248 30.5012V31.1012ZM11.1452 31.3687C11.1452 31.1725 11.2717 31.1012 11.3248 31.1012V30.5012C10.8496 30.5012 10.5452 30.9398 10.5452 31.3687H11.1452Z" fill="#222532"/>
<path d="M16.5999 28.2476H31.466V29.95H16.5999V28.2476Z" fill="white" stroke="#222532" stroke-width="0.6"/>
</svg>
