<svg width="24" height="59" viewBox="0 0 24 59" fill="none" xmlns="http://www.w3.org/2000/svg">
<g filter="url(#filter0_d)">
<path fill-rule="evenodd" clip-rule="evenodd" d="M4.27835 23.6571C4.27835 8.65454 9.47828 0.560453 11.6048 0.559814C13.7316 0.560453 18.9312 8.65403 18.9312 23.6571C18.9312 38.8157 14.3822 49.0921 14.189 49.5222L14.0008 49.9404H9.20874L9.02058 49.5222C8.82748 49.092 4.27835 38.8157 4.27835 23.6571ZM10.939 2.6745V2.67441L10.9391 2.67436L10.939 2.6745ZM10.939 2.6745V27.6399H12.2711V2.67441C13.9762 4.49433 17.5995 11.1152 17.5995 23.6573C17.5995 27.8427 17.2315 31.6617 16.7069 34.9969C15.936 33.6848 14.519 31.8987 11.9366 30.1345C5.65764 25.8435 5.73395 19.9514 5.73906 19.7027H5.7374C6.39178 9.70546 9.42376 4.29359 10.939 2.6745ZM5.74079 27.8332C5.68417 26.8894 5.65087 25.9217 5.63255 24.9361C6.58504 27.0526 8.27508 29.4677 11.2753 31.5185C15.5389 34.4328 16.2688 37.3154 16.2872 37.388L16.2874 37.3887C15.961 39.0931 15.603 40.6402 15.245 42.0022C14.6839 40.8135 13.6948 39.352 11.9481 38.1075C6.68795 34.3621 5.85716 28.9281 5.74079 27.8332ZM12.271 48.3479H13.1918L13.1917 48.3476C13.4564 47.6944 13.9926 46.2966 14.602 44.2856C14.4721 43.6225 13.8494 41.3148 11.2651 39.4749C8.91577 37.8005 7.37055 35.8074 6.34985 33.9397C7.4405 41.5801 9.41868 46.8705 10.0181 48.3479H10.9389V42.7724H12.271V48.3479Z" fill="white"/>
<path d="M11.6048 0.559814L11.6048 0.434814L11.6048 0.434814L11.6048 0.559814ZM14.189 49.5222L14.303 49.5735L14.303 49.5734L14.189 49.5222ZM14.0008 49.9404V50.0654H14.0817L14.1148 49.9917L14.0008 49.9404ZM9.20874 49.9404L9.09475 49.9917L9.12792 50.0654H9.20874V49.9404ZM9.02058 49.5222L8.90654 49.5734L8.90659 49.5735L9.02058 49.5222ZM10.939 2.67441L10.8919 2.55863L10.814 2.59032V2.67441H10.939ZM10.9391 2.67436L11.0304 2.75978L10.892 2.55858L10.9391 2.67436ZM10.939 27.6399H10.814V27.7649H10.939V27.6399ZM12.2711 27.6399V27.7649H12.3961V27.6399H12.2711ZM12.2711 2.67441L12.3623 2.58895L12.1461 2.35817V2.67441H12.2711ZM16.7069 34.9969L16.5992 35.0602L16.7761 35.3615L16.8304 35.0163L16.7069 34.9969ZM11.9366 30.1345L11.866 30.2377L11.8661 30.2377L11.9366 30.1345ZM5.73906 19.7027L5.86403 19.7053L5.86666 19.5777H5.73906V19.7027ZM5.7374 19.7027L5.61266 19.6945L5.60395 19.8277H5.7374V19.7027ZM5.63255 24.9361L5.74654 24.8848L5.50757 24.9384L5.63255 24.9361ZM5.74079 27.8332L5.61588 27.8407L5.61649 27.8464L5.74079 27.8332ZM11.2753 31.5185L11.2048 31.6217H11.2048L11.2753 31.5185ZM16.2872 37.388L16.166 37.4187L16.1661 37.4188L16.2872 37.388ZM16.2874 37.3887L16.4101 37.4122L16.4154 37.3848L16.4085 37.3579L16.2874 37.3887ZM15.245 42.0022L15.132 42.0556L15.2786 42.3662L15.3659 42.034L15.245 42.0022ZM11.9481 38.1075L12.0206 38.0057L12.0206 38.0057L11.9481 38.1075ZM13.1918 48.3479V48.4729H13.3907L13.3045 48.2937L13.1918 48.3479ZM12.271 48.3479H12.146V48.4729H12.271V48.3479ZM13.1917 48.3476L13.0758 48.3006L13.055 48.3519L13.079 48.4018L13.1917 48.3476ZM14.602 44.2856L14.7216 44.3218L14.7307 44.2921L14.7247 44.2615L14.602 44.2856ZM11.2651 39.4749L11.1926 39.5767L11.1927 39.5767L11.2651 39.4749ZM6.34985 33.9397L6.45954 33.8797L6.22611 33.9573L6.34985 33.9397ZM10.0181 48.3479L9.90227 48.3949L9.93392 48.4729H10.0181V48.3479ZM10.9389 48.3479V48.4729H11.0639V48.3479H10.9389ZM10.9389 42.7724V42.6474H10.8139V42.7724H10.9389ZM12.271 42.7724H12.396V42.6474H12.271V42.7724ZM11.6048 0.434814C11.3013 0.434906 10.9617 0.578036 10.6061 0.835926C10.2483 1.09533 9.86277 1.47924 9.46492 1.9817C8.66895 2.98693 7.81415 4.47893 7.02813 6.43615C5.45569 10.3516 4.15335 16.1418 4.15335 23.6571H4.40335C4.40335 16.1698 5.70098 10.4117 7.26013 6.52932C8.03991 4.58762 8.88381 3.11832 9.66091 2.1369C10.0496 1.64603 10.4191 1.28028 10.7528 1.03831C11.0886 0.794833 11.3766 0.684883 11.6048 0.684814L11.6048 0.434814ZM19.0562 23.6571C19.0562 16.1416 17.754 10.3514 16.1816 6.43596C15.3956 4.47877 14.5408 2.98682 13.7448 1.98163C13.3469 1.47919 12.9613 1.09529 12.6036 0.835901C12.2479 0.578023 11.9083 0.434906 11.6048 0.434814L11.6048 0.684814C11.833 0.684883 12.1211 0.79483 12.4569 1.0383C12.7906 1.28025 13.1601 1.64598 13.5488 2.13683C14.3259 3.11821 15.1698 4.58746 15.9496 6.52913C17.5087 10.4114 18.8062 16.1695 18.8062 23.6571H19.0562ZM14.303 49.5734C14.5003 49.1342 19.0562 38.8396 19.0562 23.6571H18.8062C18.8062 38.7918 14.264 49.0501 14.075 49.471L14.303 49.5734ZM14.1148 49.9917L14.303 49.5735L14.075 49.4709L13.8869 49.8891L14.1148 49.9917ZM9.20874 50.0654H14.0008V49.8154H9.20874V50.0654ZM8.90659 49.5735L9.09475 49.9917L9.32273 49.8891L9.13457 49.4709L8.90659 49.5735ZM4.15335 23.6571C4.15335 38.8396 8.70933 49.134 8.90654 49.5734L9.13462 49.471C8.94564 49.05 4.40335 38.7918 4.40335 23.6571H4.15335ZM10.814 2.67441V2.6745H11.064V2.67441H10.814ZM10.892 2.55858L10.8919 2.55863L10.9861 2.7902L10.9863 2.79015L10.892 2.55858ZM11.0303 2.75991L11.0304 2.75978L10.8479 2.58895L10.8478 2.58908L11.0303 2.75991ZM11.064 27.6399V2.6745H10.814V27.6399H11.064ZM12.2711 27.5149H10.939V27.7649H12.2711V27.5149ZM12.1461 2.67441V27.6399H12.3961V2.67441H12.1461ZM17.7245 23.6573C17.7245 11.0956 14.0962 4.43959 12.3623 2.58895L12.1799 2.75988C13.8562 4.54907 17.4745 11.1348 17.4745 23.6573H17.7245ZM16.8304 35.0163C17.3558 31.6755 17.7245 27.85 17.7245 23.6573H17.4745C17.4745 27.8354 17.1071 31.6479 16.5835 34.9775L16.8304 35.0163ZM11.8661 30.2377C14.433 31.9913 15.8374 33.7637 16.5992 35.0602L16.8147 34.9336C16.0346 33.6058 14.605 31.806 12.0071 30.0313L11.8661 30.2377ZM5.61409 19.7001C5.60861 19.9666 5.53604 25.9118 11.866 30.2377L12.0071 30.0313C5.77925 25.7752 5.85928 19.9362 5.86403 19.7053L5.61409 19.7001ZM5.7374 19.8277H5.73906V19.5777H5.7374V19.8277ZM10.8478 2.58908C9.30639 4.23608 6.26823 9.67935 5.61266 19.6945L5.86213 19.7108C6.51534 9.73157 9.54114 4.35111 11.0303 2.75991L10.8478 2.58908ZM5.50757 24.9384C5.52591 25.9253 5.55927 26.8947 5.61601 27.8407L5.86556 27.8257C5.80908 26.884 5.77582 25.9181 5.75753 24.9338L5.50757 24.9384ZM11.3459 31.4153C8.36645 29.3788 6.69055 26.9825 5.74654 24.8848L5.51856 24.9874C6.47952 27.1227 8.18372 29.5567 11.2048 31.6217L11.3459 31.4153ZM16.4084 37.3573C16.3838 37.2604 15.6387 34.3496 11.3459 31.4153L11.2048 31.6217C15.4391 34.516 16.1538 37.3704 16.166 37.4187L16.4084 37.3573ZM16.4085 37.3579L16.4084 37.3572L16.1661 37.4188L16.1662 37.4194L16.4085 37.3579ZM15.3659 42.034C15.7246 40.6693 16.0832 39.1195 16.4101 37.4122L16.1646 37.3651C15.8388 39.0668 15.4814 40.6111 15.1241 41.9704L15.3659 42.034ZM11.8756 38.2093C13.602 39.4393 14.5783 40.8827 15.132 42.0556L15.3581 41.9488C14.7894 40.7443 13.7877 39.2646 12.0206 38.0057L11.8756 38.2093ZM5.61649 27.8464C5.73431 28.955 6.5722 34.4331 11.8756 38.2093L12.0206 38.0057C6.8037 34.291 5.98 28.9012 5.86509 27.82L5.61649 27.8464ZM13.1918 48.2229H12.271V48.4729H13.1918V48.2229ZM13.079 48.4018L13.0792 48.4021L13.3045 48.2937L13.3043 48.2934L13.079 48.4018ZM14.4824 44.2493C13.8742 46.2563 13.3393 47.6505 13.0758 48.3006L13.3075 48.3945C13.5735 47.7383 14.111 46.3369 14.7216 44.3218L14.4824 44.2493ZM11.1927 39.5767C13.7421 41.3918 14.3532 43.6655 14.4793 44.3096L14.7247 44.2615C14.5911 43.5795 13.9567 41.2377 11.3376 39.3731L11.1927 39.5767ZM6.24016 33.9996C7.26851 35.8813 8.82561 37.8898 11.1926 39.5767L11.3377 39.3731C9.00594 37.7113 7.4726 35.7335 6.45954 33.8797L6.24016 33.9996ZM10.1339 48.3009C9.53729 46.8303 7.56247 41.55 6.4736 33.922L6.22611 33.9573C7.31854 41.6103 9.30008 46.9106 9.90227 48.3949L10.1339 48.3009ZM10.9389 48.2229H10.0181V48.4729H10.9389V48.2229ZM10.8139 42.7724V48.3479H11.0639V42.7724H10.8139ZM12.271 42.6474H10.9389V42.8974H12.271V42.6474ZM12.396 48.3479V42.7724H12.146V48.3479H12.396Z" fill="black"/>
</g>
<defs>
<filter id="filter0_d" x="0.153351" y="0.434814" width="22.9029" height="57.6306" filterUnits="userSpaceOnUse" color-interpolation-filters="sRGB">
<feFlood flood-opacity="0" result="BackgroundImageFix"/>
<feColorMatrix in="SourceAlpha" type="matrix" values="0 0 0 0 0 0 0 0 0 0 0 0 0 0 0 0 0 0 127 0"/>
<feOffset dy="4"/>
<feGaussianBlur stdDeviation="2"/>
<feColorMatrix type="matrix" values="0 0 0 0 0 0 0 0 0 0 0 0 0 0 0 0 0 0 0.25 0"/>
<feBlend mode="normal" in2="BackgroundImageFix" result="effect1_dropShadow"/>
<feBlend mode="normal" in="SourceGraphic" in2="effect1_dropShadow" result="shape"/>
</filter>
</defs>
</svg>
