<svg width="46" height="53" viewBox="0 0 46 53" fill="none" xmlns="http://www.w3.org/2000/svg">
<g filter="url(#filter0_d)">
<path d="M41.2914 36.7166H33.3435C33.0892 36.7166 32.8817 36.9666 32.8817 37.2732C32.8817 37.5797 33.0892 37.8298 33.3435 37.8298H41.2914C41.5458 37.8298 41.7532 37.5797 41.7532 37.2732C41.7532 36.9666 41.5458 36.7166 41.2914 36.7166Z" fill="white"/>
<path d="M41.2914 43.7722H32.3802C32.1259 43.7722 31.9185 44.0223 31.9185 44.3288C31.9185 44.6354 32.1259 44.8854 32.3802 44.8854H41.2914C41.5458 44.8854 41.7532 44.6354 41.7532 44.3288C41.7532 44.0223 41.5458 43.7722 41.2914 43.7722Z" fill="white"/>
<path d="M5.27179 40.7348H12.4582C12.7125 40.7348 12.92 40.4848 12.92 40.1782C12.92 39.8716 12.7125 39.6216 12.4582 39.6216H5.27179C5.01744 39.6216 4.81 39.8716 4.81 40.1782C4.81 40.4869 5.01744 40.7348 5.27179 40.7348Z" fill="white"/>
<path fill-rule="evenodd" clip-rule="evenodd" d="M8.40166 0.412719C8.58022 0.306183 8.79307 0.349666 8.93378 0.519261L8.93401 0.519523C9.07291 0.68909 9.10898 0.947826 9.01879 1.16308C8.73198 1.85451 8.58767 2.59158 8.58767 3.35475C8.58767 6.08127 10.4384 8.30122 12.7113 8.30122C13.3481 8.30122 13.9632 8.1251 14.5404 7.78157C14.719 7.67503 14.9318 7.71851 15.0725 7.88811C15.2132 8.05768 15.2475 8.31642 15.1591 8.5295C14.2987 10.6103 12.567 11.9018 10.6404 11.9018C7.85688 11.9018 5.59305 9.18157 5.59305 5.83971C5.59305 3.52408 6.66994 1.44552 8.40166 0.412719ZM13.5643 9.32718C13.2829 9.38588 12.9997 9.41415 12.7111 9.41415L12.7112 9.41435C9.92768 9.41435 7.66385 6.69634 7.66565 3.35448C7.66565 3.0066 7.6891 2.66521 7.73781 2.3282C6.96577 3.23921 6.5166 4.49159 6.5166 5.83966C6.5166 8.56835 8.36736 10.7883 10.6403 10.7883C11.7641 10.7883 12.8049 10.2513 13.5643 9.32718Z" fill="white"/>
<path fill-rule="evenodd" clip-rule="evenodd" d="M41.2933 27.7958H41.2915C41.0371 27.7958 40.8315 28.0437 40.8297 28.3503L40.8189 31.3225L23.6823 0.858957C23.5109 0.552385 23.0906 0.552385 22.9175 0.858957L5.79336 31.3008L5.80418 28.1459C5.80598 27.8393 5.59854 27.5871 5.3442 27.5871H5.34239C5.08805 27.5871 4.88241 27.835 4.8806 28.1415L4.86437 33.1206C4.86256 33.3663 4.99605 33.5816 5.18906 33.6555C5.23416 33.6729 5.27925 33.6794 5.32616 33.6794C5.47588 33.6794 5.62019 33.5903 5.70858 33.4359L8.40354 28.6459V33.125C8.40354 33.4315 8.61098 33.6816 8.86533 33.6816H19.1508C19.6757 35.7341 21.2685 37.23 23.1481 37.23C23.1608 37.23 23.1716 37.2278 23.1842 37.2278C23.1869 37.2278 23.1901 37.2284 23.1932 37.2289C23.1964 37.2294 23.1995 37.23 23.2022 37.23C23.2078 37.23 23.2133 37.2294 23.2188 37.2285L23.2293 37.2267C23.2383 37.2251 23.2473 37.2235 23.2564 37.2235C25.0873 37.1669 26.6296 35.6928 27.1437 33.6816H37.7363C37.9906 33.6816 38.1981 33.4315 38.1981 33.125V28.6459L40.893 33.4359C41.0067 33.6381 41.2159 33.7272 41.4089 33.6555C41.6019 33.5837 41.7354 33.3685 41.7354 33.125L41.7535 28.3546C41.7553 28.0459 41.5496 27.798 41.2935 27.7958L41.2933 27.7958ZM23.2511 36.1109L23.2509 36.1109C23.2277 36.1129 23.2059 36.1148 23.1841 36.1148C22.3831 36.1018 21.7338 35.319 21.7338 34.358C21.7338 33.7253 22.5058 32.2685 23.2021 31.1705C23.8984 32.2685 24.6705 33.7253 24.6705 34.358C24.6705 35.3038 24.0409 36.0757 23.2562 36.1105L23.2511 36.1109ZM25.5922 34.3558C25.5922 34.521 25.5742 34.6775 25.5526 34.8341L25.5525 34.8342C26.0811 34.1384 26.4058 33.2186 26.4021 32.2076C26.4021 30.5399 24.3024 26.9915 23.1444 25.226C21.9881 26.9915 19.8866 30.5421 19.8866 32.2076C19.8866 33.3034 20.2672 34.2949 20.8751 35.0059C20.8354 34.795 20.8083 34.5797 20.8083 34.3558C20.8083 32.9468 22.5058 30.4138 22.8449 29.9202C23.0199 29.6658 23.3807 29.6658 23.5557 29.9202C23.8966 30.4138 25.5922 32.9468 25.5922 34.3558ZM23.5034 23.9868C23.3284 23.7324 22.9676 23.7324 22.7926 23.9868C22.4012 24.5543 18.9666 29.6159 18.9666 32.208C18.9666 32.2953 18.9712 32.3815 18.9759 32.4673L18.9759 32.4676C18.9777 32.5014 18.9795 32.5352 18.981 32.5689H14.3308V28.8987C14.9333 28.3117 16.9302 26.2766 18.9524 23.2563C20.5939 20.806 22.4682 17.3423 23.3178 13.3937C24.1674 17.3444 26.0416 20.8056 27.6831 23.2563C29.7052 26.2764 31.7021 28.3115 32.3047 28.8987V32.5689H27.3132C27.3204 32.4494 27.3276 32.3298 27.3276 32.208C27.3294 29.6163 23.8949 24.5546 23.5035 23.9868H23.5034ZM33.2261 32.5687H37.2739L37.2763 27.0047L23.3016 2.16354L9.32693 27.0047V32.5687H13.4055V28.6289C13.4055 28.455 13.4722 28.2919 13.5859 28.1875L13.5862 28.1872C13.6978 28.0818 22.854 19.4314 22.854 9.19304C22.854 8.88647 23.0614 8.63643 23.3158 8.63643C23.5701 8.63643 23.7776 8.88647 23.7776 9.19304C23.7776 19.4278 32.9274 28.0757 33.0452 28.1871L33.0457 28.1875C33.1593 28.2941 33.2261 28.4571 33.2261 28.6289V32.5687Z" fill="white"/>
<path fill-rule="evenodd" clip-rule="evenodd" d="M30.3183 39.2912C30.3598 39.4304 30.3508 39.5869 30.2967 39.7195L30.297 39.7195C30.2411 39.8543 30.1455 39.9565 30.0264 40.0044L28.3182 40.6849L29.9597 41.2437C30.0787 41.285 30.1798 41.3807 30.2393 41.5112C30.2988 41.6416 30.3114 41.7938 30.2772 41.9373L29.6873 44.3334C29.6278 44.5747 29.4456 44.7313 29.2454 44.7313C29.2039 44.7313 29.1606 44.7226 29.1191 44.7095L23.2419 42.707L17.8482 44.8574C17.8013 44.8769 17.7526 44.8856 17.7039 44.8856C17.5127 44.8856 17.3341 44.7421 17.2709 44.5116L16.5909 42.1482C16.5494 42.0091 16.5584 41.8525 16.6125 41.7199C16.6666 41.5851 16.764 41.4851 16.8813 41.4372L18.3063 40.8698L16.5945 40.287C16.4754 40.2457 16.3744 40.1501 16.3149 40.0196C16.2553 39.8891 16.2427 39.7369 16.277 39.5934L16.8668 37.1974C16.939 36.9038 17.1916 36.7364 17.4351 36.8191L23.3825 38.8455L29.0574 36.582C29.2973 36.4864 29.5553 36.6408 29.6382 36.9278L30.3183 39.2912ZM17.6228 38.0389L17.2945 39.3674L19.8704 40.2458L21.8186 39.4696L17.6228 38.0389ZM29.2576 42.1612L28.9293 43.4896L24.8057 42.0829L26.7539 41.3067L29.2576 42.1612ZM17.6139 42.3178L17.9909 43.6289L29.2923 39.1238L28.9153 37.8126L17.6139 42.3178Z" fill="white"/>
</g>
<defs>
<filter id="filter0_d" x="0.809998" y="0.354858" width="44.9435" height="52.5308" filterUnits="userSpaceOnUse" color-interpolation-filters="sRGB">
<feFlood flood-opacity="0" result="BackgroundImageFix"/>
<feColorMatrix in="SourceAlpha" type="matrix" values="0 0 0 0 0 0 0 0 0 0 0 0 0 0 0 0 0 0 127 0"/>
<feOffset dy="4"/>
<feGaussianBlur stdDeviation="2"/>
<feColorMatrix type="matrix" values="0 0 0 0 0 0 0 0 0 0 0 0 0 0 0 0 0 0 0.25 0"/>
<feBlend mode="normal" in2="BackgroundImageFix" result="effect1_dropShadow"/>
<feBlend mode="normal" in="SourceGraphic" in2="effect1_dropShadow" result="shape"/>
</filter>
</defs>
</svg>
