<svg width="58" height="54" viewBox="0 0 58 54" fill="none" xmlns="http://www.w3.org/2000/svg">
<path fill-rule="evenodd" clip-rule="evenodd" d="M57.4201 49.7505C57.4111 49.7832 57.3998 49.8158 57.3863 49.8458L57.3867 49.8454C57.3732 49.878 57.3596 49.908 57.3326 49.9297C57.322 49.9497 57.3115 49.9673 57.301 49.9848C57.2957 49.9936 57.2904 50.0023 57.2852 50.0114C57.2798 50.0195 57.2742 50.0279 57.2685 50.0363C57.2642 50.0427 57.2598 50.0491 57.2553 50.0556L57.2431 50.0729C57.2376 50.0807 57.2321 50.0883 57.2265 50.0958C57.2126 50.1126 57.1986 50.1294 57.1837 50.1463L57.1702 50.1611C57.1476 50.1883 57.1228 50.2128 57.098 50.2346C57.0777 50.2509 57.0529 50.27 57.0303 50.2863L57.0225 50.2911C57.0171 50.2945 57.0118 50.298 57.0065 50.3015C57.0032 50.3037 56.9999 50.3059 56.9966 50.3081L56.9965 50.3082C56.9813 50.3184 56.966 50.3286 56.9491 50.338C56.9445 50.3408 56.9398 50.3434 56.9351 50.3459C56.9325 50.3473 56.9299 50.3486 56.9273 50.3499C56.915 50.3561 56.9023 50.3616 56.8895 50.3672L56.8893 50.3673L56.8887 50.3676C56.8803 50.3712 56.8718 50.3749 56.8634 50.3788C56.8574 50.3816 56.8516 50.3846 56.8459 50.3876C56.8423 50.3895 56.8388 50.3913 56.8352 50.3931C56.8331 50.3941 56.8311 50.3951 56.829 50.3961C56.8228 50.3989 56.8163 50.4015 56.8093 50.4033L56.8057 50.4042C56.8026 50.4047 56.7997 50.4047 56.7969 50.4047C56.7929 50.4047 56.789 50.4047 56.7845 50.4061C56.7145 50.4278 56.6424 50.4414 56.5679 50.4414C56.4664 50.4414 56.4303 50.4605 56.4303 50.4605C56.3888 50.5185 56.3135 50.8088 56.2658 50.9927L56.2612 51.0103C56.0852 51.6908 55.7176 53.1062 54.2312 53.1062C52.9598 53.1062 52.3282 52.0875 51.8661 51.3422L51.8629 51.3369C51.4298 50.6319 51.2651 50.4414 50.9403 50.4414C50.6155 50.4414 50.4531 50.6319 50.0178 51.3341L50.0146 51.3393C49.5524 52.0847 48.9208 53.1034 47.6472 53.1034C46.3757 53.1034 45.7442 52.0847 45.2821 51.3394L45.2788 51.3341C44.8457 50.6319 44.6811 50.4414 44.3563 50.4414C44.0337 50.4414 43.8691 50.632 43.4338 51.3369C42.9736 52.0827 42.3398 53.1062 41.0654 53.1062C39.7917 53.1062 39.1602 52.0875 38.6981 51.3422L38.6948 51.3369C38.2617 50.6347 38.0971 50.4442 37.7723 50.4442C37.4475 50.4442 37.2851 50.6347 36.8497 51.3369C36.3896 52.0827 35.758 53.1062 34.4814 53.1062C33.21 53.1062 32.5784 52.0875 32.1163 51.3422L32.113 51.3369C31.68 50.6347 31.5153 50.4442 31.1905 50.4442C30.868 50.4442 30.7033 50.6347 30.268 51.3397C29.8078 52.0855 29.174 53.109 27.8996 53.109C26.6282 53.109 25.9966 52.0903 25.5345 51.345L25.5313 51.3397C25.0982 50.6375 24.9335 50.447 24.6087 50.447C24.2862 50.447 24.1215 50.6375 23.6862 51.3425C23.226 52.0883 22.5922 53.1118 21.3178 53.1118C20.9141 53.1118 20.5464 52.9131 20.287 52.5538C19.6577 51.6883 19.784 50.213 20.0434 47.8776L20.0479 47.8372C20.1405 46.9922 20.2818 45.7036 20.2352 45.0767C18.5503 45.4739 16.1594 49.5489 14.9189 52.5131C14.7655 52.8833 14.452 53.1119 14.1136 53.1119C14.0956 53.1119 14.0776 53.1119 14.0595 53.1092C13.7009 53.0847 13.3874 52.8043 13.2656 52.3961C13.0581 51.7041 11.2852 45.5448 13.128 42.137C13.8182 40.8631 14.9369 40.1309 16.367 40.0193C17.6097 39.9213 18.1781 39.5184 18.2864 39.2C18.3586 38.9877 18.2436 38.6257 17.9909 38.28C17.3188 37.3573 15.8165 36.6169 14.1069 37.1776C11.7362 37.9511 9.07916 41.7862 8.1837 45.7275C7.87016 47.1129 7.53179 49.677 8.81297 51.2638C9.16032 51.6966 9.1513 52.3852 8.79493 52.8044C8.43629 53.2236 7.86792 53.2154 7.51831 52.7826C6.10407 51.0326 5.72288 48.3216 6.44241 45.1533C7.37378 41.0486 10.3197 36.1573 13.6353 35.0767C16.1051 34.2711 18.2817 35.3816 19.3463 36.8433C20.0839 37.8531 20.305 39.0154 19.9553 40.0333C19.6509 40.918 18.8028 42.0122 16.4841 42.1945C15.6202 42.2626 15.018 42.6355 14.6413 43.3296C13.8812 44.7341 14.0571 47.2246 14.4022 49.2116C15.7556 46.5904 18.1307 42.7824 20.5893 42.875C20.9862 42.8913 21.3449 43.0982 21.5975 43.4602C21.8501 43.8195 21.9742 44.2849 22.0193 44.862C23.6794 43.5364 26.1021 42.2244 30.8838 41.6419C25.7004 16.3011 35.4445 2.03562 35.8866 1.40686C35.8904 1.40233 35.8941 1.39874 35.8977 1.39531L35.8977 1.3953L35.8978 1.39528C35.9028 1.39048 35.9075 1.38599 35.9114 1.37964C35.9385 1.34426 35.9656 1.31432 35.9949 1.28438C36.0129 1.2626 36.031 1.24355 36.0513 1.22722C36.079 1.20492 36.1067 1.18628 36.1356 1.16681L36.1357 1.1668L36.155 1.15372C36.1731 1.14011 36.1911 1.1265 36.2114 1.11562C36.2543 1.09384 36.2971 1.07751 36.3422 1.0639C36.3528 1.06209 36.3633 1.05785 36.3738 1.05362L36.3739 1.0536C36.3791 1.05149 36.3844 1.04938 36.3896 1.04757C36.4505 1.03124 36.5137 1.02307 36.5791 1.02307L36.7122 1.02851C36.9783 1.02851 37.2287 1.16733 37.4001 1.4123C37.8422 2.03804 47.5388 16.2306 42.448 41.4488C55.76 42.3905 57.3885 48.8006 57.4517 49.0809C57.4528 49.0864 57.4534 49.0925 57.4539 49.0986C57.4545 49.1047 57.455 49.1109 57.4562 49.1163L57.4697 49.2225C57.4742 49.2606 57.4787 49.2987 57.4787 49.3368C57.4787 49.3397 57.4789 49.3426 57.4791 49.3455C57.4793 49.348 57.4796 49.3506 57.4799 49.3531L57.4806 49.3612C57.4807 49.3627 57.4808 49.3642 57.4809 49.3657C57.481 49.3669 57.481 49.3682 57.481 49.3694C57.481 49.3814 57.4803 49.3925 57.4793 49.4037L57.4784 49.4139L57.4765 49.432L57.4762 49.4359C57.4741 49.4729 57.4717 49.5122 57.4652 49.5491C57.4607 49.5818 57.4539 49.6144 57.4472 49.6471C57.4444 49.6578 57.4419 49.6686 57.4394 49.6793C57.4336 49.7038 57.4279 49.7278 57.4201 49.7505ZM37.4808 44.8021H39.8131C44.9492 24.5327 40.1176 10.8684 37.4808 5.44364V44.8021ZM35.6764 5.72942V44.8022H33.4772C28.4406 24.9272 33.0194 11.3499 35.6764 5.72942ZM54.5442 50.3915L54.5488 50.3739L54.5481 50.374C54.6541 49.9657 54.8345 49.2961 55.2788 48.8252C54.2799 47.3009 51.1289 44.1707 41.9826 43.6018C41.7841 44.4647 41.5698 45.3384 41.3353 46.2257C41.2157 46.6775 40.8684 46.9851 40.4759 46.9851H32.8118C32.4193 46.9851 32.072 46.6776 31.9524 46.2257C31.7359 45.3983 31.5374 44.5844 31.3502 43.7815C25.551 44.4402 23.476 46.1958 21.8903 47.6765C21.8833 47.7403 21.8766 47.8036 21.8698 47.8675C21.8593 47.9673 21.8486 48.0684 21.8362 48.1746C21.7482 48.9694 21.6129 50.1942 21.64 50.8475C21.8046 50.7305 21.9715 50.4909 22.2422 50.05L22.2454 50.0448C22.7075 49.2995 23.3391 48.2807 24.6128 48.2807C25.8842 48.2807 26.5158 49.2994 26.9779 50.0447L26.9811 50.05C27.4142 50.7522 27.5789 50.9427 27.9037 50.9427C28.2285 50.9427 28.3909 50.7522 28.8262 50.05L28.8294 50.0448C29.2916 49.2995 29.9232 48.2807 31.1968 48.2807C32.4683 48.2807 33.0998 49.2994 33.5619 50.0447L33.5652 50.05C34.0005 50.7522 34.1652 50.9427 34.4877 50.9427C34.8125 50.9427 34.9749 50.7522 35.4103 50.05C35.8704 49.3042 36.502 48.2807 37.7786 48.2807C39.05 48.2807 39.6816 49.2994 40.1437 50.0447L40.1469 50.05C40.5823 50.755 40.7469 50.9455 41.0717 50.9455C41.3965 50.9455 41.559 50.755 41.9943 50.0528L41.9975 50.0476C42.4596 49.3022 43.0912 48.2835 44.3649 48.2835C45.6363 48.2835 46.2678 49.3022 46.7299 50.0475L46.7332 50.0528C47.1663 50.755 47.331 50.9455 47.6558 50.9455C47.9805 50.9455 48.1452 50.755 48.5805 50.05C49.0407 49.3042 49.6745 48.2807 50.9489 48.2807C52.2226 48.2807 52.8541 49.2994 53.3162 50.0447L53.3195 50.05C53.7548 50.7522 53.9195 50.9427 54.242 50.9427C54.3435 50.9427 54.3796 50.9237 54.3796 50.9237C54.4211 50.8657 54.4965 50.5754 54.5442 50.3915Z" fill="white"/>
<path d="M57.3863 49.8458L56.9306 49.6398L57.7367 50.2024L57.3863 49.8458ZM57.4201 49.7505L56.9475 49.5874L56.9423 49.6022L56.9381 49.6174L57.4201 49.7505ZM57.3867 49.8454L57.8486 50.0368L57.0363 49.4887L57.3867 49.8454ZM57.3326 49.9297L57.0191 49.5401L56.9385 49.605L56.8903 49.6965L57.3326 49.9297ZM57.301 49.9848L57.7297 50.2421L57.7297 50.242L57.301 49.9848ZM57.2852 50.0114L57.702 50.2876L57.7102 50.2752L57.7177 50.2623L57.2852 50.0114ZM57.2685 50.0363L57.6825 50.3166L57.6826 50.3165L57.2685 50.0363ZM57.2553 50.0556L57.6647 50.3427L57.6664 50.3402L57.2553 50.0556ZM57.2431 50.0729L57.6506 50.3628L57.6525 50.3601L57.2431 50.0729ZM57.2265 50.0958L57.6115 50.4148L57.6197 50.4049L57.6274 50.3947L57.2265 50.0958ZM57.1837 50.1463L57.5534 50.4829L57.557 50.4788L57.1837 50.1463ZM57.1702 50.1611L56.8004 49.8245L56.7926 49.8331L56.7852 49.842L57.1702 50.1611ZM57.098 50.2346L57.4114 50.6242L57.4197 50.6175L57.4278 50.6104L57.098 50.2346ZM57.0303 50.2863L57.293 50.7118L57.3086 50.7021L57.3236 50.6913L57.0303 50.2863ZM57.0225 50.2911L56.7599 49.8656L56.7561 49.868L57.0225 50.2911ZM57.0065 50.3015L56.73 49.8849L56.73 49.8849L57.0065 50.3015ZM56.9966 50.3081L57.2739 50.7242L57.2749 50.7235L56.9966 50.3081ZM56.9965 50.3082L56.7191 49.8922L56.7183 49.8927L56.9965 50.3082ZM56.9491 50.338L56.7058 49.9012L56.6982 49.9054L56.6908 49.9099L56.9491 50.338ZM56.9351 50.3459L57.1692 50.7878L57.1693 50.7877L56.9351 50.3459ZM56.9273 50.3499L57.1507 50.7972L57.151 50.7971L56.9273 50.3499ZM56.8895 50.3672L57.0836 50.8281L57.0895 50.8255L56.8895 50.3672ZM56.8893 50.3673L56.6952 49.9064L56.6862 49.9104L56.8893 50.3673ZM56.8887 50.3676L57.0888 50.8258L57.0918 50.8245L56.8887 50.3676ZM56.8634 50.3788L57.0695 50.8344L57.0741 50.8323L56.8634 50.3788ZM56.8459 50.3876L56.6137 49.9448L56.6135 49.9449L56.8459 50.3876ZM56.8352 50.3931L57.0574 50.841L57.0575 50.841L56.8352 50.3931ZM56.829 50.3961L56.6209 49.9414L56.6207 49.9415L56.829 50.3961ZM56.8093 50.4033L56.9227 50.8903L56.9308 50.8884L56.9388 50.8863L56.8093 50.4033ZM56.8057 50.4042L56.8885 50.8973L56.9038 50.8947L56.9191 50.8912L56.8057 50.4042ZM56.7845 50.4061L56.64 49.9274L56.6358 49.9287L56.7845 50.4061ZM56.4303 50.4605L56.1969 50.0183L56.0925 50.0735L56.0237 50.1695L56.4303 50.4605ZM56.2658 50.9927L56.7497 51.1183L56.7497 51.1183L56.2658 50.9927ZM56.2612 51.0103L55.7772 50.8847L55.7771 50.8852L56.2612 51.0103ZM51.8661 51.3422L52.2911 51.0787L52.2911 51.0787L51.8661 51.3422ZM51.8629 51.3369L51.4368 51.5986L51.4379 51.6004L51.8629 51.3369ZM50.0178 51.3341L50.4427 51.5977L50.4427 51.5976L50.0178 51.3341ZM50.0146 51.3393L49.5897 51.0757L49.5896 51.0758L50.0146 51.3393ZM45.2821 51.3394L45.707 51.0759L45.7069 51.0757L45.2821 51.3394ZM45.2788 51.3341L44.8533 51.5966L44.854 51.5978L45.2788 51.3341ZM43.4338 51.3369L43.0083 51.0742L43.0082 51.0744L43.4338 51.3369ZM38.6981 51.3422L38.2731 51.6056L38.2731 51.6056L38.6981 51.3422ZM38.6948 51.3369L38.2692 51.5994L38.2698 51.6003L38.6948 51.3369ZM36.8497 51.3369L36.4248 51.0735L36.4242 51.0744L36.8497 51.3369ZM32.1163 51.3422L31.6913 51.6055L31.6914 51.6056L32.1163 51.3422ZM32.113 51.3369L31.6875 51.5994L31.688 51.6003L32.113 51.3369ZM30.268 51.3397L29.8425 51.077L29.8424 51.0772L30.268 51.3397ZM25.5345 51.345L25.1095 51.6083L25.1096 51.6084L25.5345 51.345ZM25.5313 51.3397L25.1057 51.6022L25.1063 51.6031L25.5313 51.3397ZM23.6862 51.3425L23.2608 51.0798L23.2607 51.0799L23.6862 51.3425ZM20.287 52.5538L20.6924 52.2611L20.6914 52.2597L20.287 52.5538ZM20.0434 47.8776L20.5404 47.9328L20.5405 47.932L20.0434 47.8776ZM20.0479 47.8372L19.5508 47.7827L19.5508 47.7827L20.0479 47.8372ZM20.2352 45.0767L20.7338 45.0397L20.6904 44.4557L20.1204 44.5901L20.2352 45.0767ZM14.9189 52.5131L14.4576 52.32L14.4569 52.3217L14.9189 52.5131ZM14.0595 53.1092L14.1341 52.6148L14.1139 52.6117L14.0936 52.6103L14.0595 53.1092ZM13.2656 52.3961L13.7447 52.2531L13.7445 52.2524L13.2656 52.3961ZM13.128 42.137L12.6884 41.8988L12.6882 41.8991L13.128 42.137ZM16.367 40.0193L16.4059 40.5178L16.4062 40.5177L16.367 40.0193ZM18.2864 39.2L18.7598 39.3609L18.7598 39.3609L18.2864 39.2ZM17.9909 38.28L17.5868 38.5744L17.5872 38.575L17.9909 38.28ZM14.1069 37.1776L14.2619 37.653L14.2627 37.6527L14.1069 37.1776ZM8.1837 45.7275L7.69613 45.6167L7.69603 45.6171L8.1837 45.7275ZM8.81297 51.2638L9.20291 50.9508L9.202 50.9497L8.81297 51.2638ZM8.79493 52.8044L9.17485 53.1294L9.17586 53.1283L8.79493 52.8044ZM7.51831 52.7826L7.90726 52.4684L7.9072 52.4683L7.51831 52.7826ZM6.44241 45.1533L6.92999 45.264L6.93001 45.2639L6.44241 45.1533ZM13.6353 35.0767L13.7903 35.5521L13.7904 35.5521L13.6353 35.0767ZM19.3463 36.8433L18.9422 37.1376L18.9426 37.1382L19.3463 36.8433ZM19.9553 40.0333L20.4281 40.196L20.4282 40.1957L19.9553 40.0333ZM16.4841 42.1945L16.4449 41.6961L16.4448 41.6961L16.4841 42.1945ZM14.6413 43.3296L14.2018 43.0911L14.2016 43.0916L14.6413 43.3296ZM14.4022 49.2116L13.9096 49.2972L14.1641 50.7626L14.8465 49.441L14.4022 49.2116ZM20.5893 42.875L20.6098 42.3754L20.6081 42.3753L20.5893 42.875ZM21.5975 43.4602L21.1874 43.7463L21.1885 43.7478L21.5975 43.4602ZM22.0193 44.862L21.5208 44.9009L21.5943 45.8411L22.3313 45.2527L22.0193 44.862ZM30.8838 41.6419L30.9443 42.1383L31.4823 42.0727L31.3737 41.5417L30.8838 41.6419ZM35.8866 1.40686L35.5017 1.08778L35.489 1.10305L35.4776 1.11928L35.8866 1.40686ZM35.8977 1.39531L36.2433 1.7569L36.2513 1.74887L35.8977 1.39531ZM35.8977 1.3953L35.5636 1.02337L35.5536 1.0323L35.5442 1.04175L35.8977 1.3953ZM35.8978 1.39528L36.2319 1.76722L36.2376 1.76212L36.2431 1.75686L35.8978 1.39528ZM35.9114 1.37964L35.5143 1.07588L35.4996 1.09512L35.4868 1.11569L35.9114 1.37964ZM35.9949 1.28438L36.3521 1.63422L36.3666 1.61939L36.3799 1.60342L35.9949 1.28438ZM36.0513 1.22722L36.3647 1.6168L36.3647 1.6168L36.0513 1.22722ZM36.1356 1.16681L36.4148 1.58173L36.4223 1.57645L36.1356 1.16681ZM36.1357 1.1668L35.856 0.752266L35.849 0.757155L36.1357 1.1668ZM36.155 1.15372L36.4347 1.56819L36.4456 1.56084L36.4561 1.55291L36.155 1.15372ZM36.2114 1.11562L35.9849 0.66975L35.9751 0.67499L36.2114 1.11562ZM36.3422 1.0639L36.2573 0.571167L36.2271 0.576367L36.1978 0.585209L36.3422 1.0639ZM36.3738 1.05362L36.5604 1.51752L36.5653 1.51549L36.3738 1.05362ZM36.3739 1.0536L36.1873 0.589687L36.1824 0.591728L36.3739 1.0536ZM36.3896 1.04757L36.2601 0.564636L36.2432 0.569166L36.2267 0.574865L36.3896 1.04757ZM36.5791 1.02307L36.5995 0.523489L36.5893 0.523071H36.5791V1.02307ZM36.7122 1.02851L36.6917 1.5281L36.7019 1.52851H36.7122V1.02851ZM37.4001 1.4123L36.9904 1.69898L36.9917 1.70081L37.4001 1.4123ZM42.448 41.4488L41.9579 41.3498L41.8453 41.9074L42.4127 41.9475L42.448 41.4488ZM57.4517 49.0809L57.9413 48.9794L57.9394 48.971L57.4517 49.0809ZM57.4539 49.0986L57.9518 49.053L57.9518 49.0527L57.4539 49.0986ZM57.4562 49.1163L57.9522 49.0531L57.9497 49.034L57.9458 49.0151L57.4562 49.1163ZM57.4697 49.2225L57.9663 49.1636L57.9657 49.1592L57.4697 49.2225ZM57.4791 49.3455L57.9775 49.305L57.9775 49.305L57.4791 49.3455ZM57.4799 49.3531L57.9776 49.3059L57.9772 49.3015L57.4799 49.3531ZM57.4806 49.3612L57.9792 49.3221L57.9784 49.3139L57.4806 49.3612ZM57.4809 49.3657L56.9813 49.3859L56.9814 49.387L57.4809 49.3657ZM57.4793 49.4037L57.9771 49.4508L57.9774 49.4475L57.4793 49.4037ZM57.4784 49.4139L57.9757 49.4654L57.9761 49.461L57.4784 49.4139ZM57.4765 49.432L56.9791 49.3806L56.978 49.3913L56.9774 49.4022L57.4765 49.432ZM57.4762 49.4359L56.9771 49.406L56.9771 49.4064L57.4762 49.4359ZM57.4652 49.5491L56.9729 49.4617L56.9712 49.4712L56.9699 49.4807L57.4652 49.5491ZM57.4472 49.6471L57.9316 49.7706L57.9344 49.7596L57.9368 49.7485L57.4472 49.6471ZM57.4394 49.6793L57.926 49.7939L57.926 49.7939L57.4394 49.6793ZM39.8131 44.8021V45.3021H40.2022L40.2978 44.9249L39.8131 44.8021ZM37.4808 44.8021H36.9808V45.3021H37.4808V44.8021ZM37.4808 5.44364L37.9305 5.22506L36.9808 5.44364H37.4808ZM35.6764 44.8022V45.3022H36.1764V44.8022H35.6764ZM35.6764 5.72942H36.1764L35.2244 5.51572L35.6764 5.72942ZM33.4772 44.8022L32.9926 44.925L33.0882 45.3022H33.4772V44.8022ZM54.5488 50.3739L55.0327 50.4996L55.2246 49.761L54.4708 49.88L54.5488 50.3739ZM54.5442 50.3915L54.0603 50.2658L54.0602 50.2659L54.5442 50.3915ZM54.5481 50.374L54.0641 50.2483L53.8724 50.9869L54.626 50.8679L54.5481 50.374ZM55.2788 48.8252L55.6425 49.1683L55.9134 48.8813L55.697 48.5511L55.2788 48.8252ZM41.9826 43.6018L42.0136 43.1028L41.5904 43.0765L41.4953 43.4897L41.9826 43.6018ZM41.3353 46.2257L41.8186 46.3537L41.8187 46.3535L41.3353 46.2257ZM31.9524 46.2257L31.4687 46.3523L31.4691 46.3536L31.9524 46.2257ZM31.3502 43.7815L31.8371 43.6679L31.736 43.2344L31.2938 43.2847L31.3502 43.7815ZM21.8903 47.6765L21.5491 47.3111L21.4137 47.4375L21.3933 47.6216L21.8903 47.6765ZM21.8698 47.8675L22.367 47.9201L21.8698 47.8675ZM21.8362 48.1746L21.3395 48.1167L21.3392 48.1196L21.8362 48.1746ZM21.64 50.8475L21.1404 50.8682L21.1785 51.7888L21.9296 51.2551L21.64 50.8475ZM22.2422 50.05L21.8172 49.7865L21.8161 49.7884L22.2422 50.05ZM22.2454 50.0448L21.8205 49.7813L21.8205 49.7813L22.2454 50.0448ZM26.9779 50.0447L27.4029 49.7814L27.4028 49.7813L26.9779 50.0447ZM26.9811 50.05L27.4067 49.7875L27.4062 49.7866L26.9811 50.05ZM28.8262 50.05L28.4013 49.7865L28.4013 49.7866L28.8262 50.05ZM28.8294 50.0448L29.2544 50.3083L29.2544 50.3083L28.8294 50.0448ZM33.5619 50.0447L33.9869 49.7813L33.9869 49.7813L33.5619 50.0447ZM33.5652 50.05L33.1402 50.3134L33.1402 50.3134L33.5652 50.05ZM35.4103 50.05L35.8352 50.3134L35.8358 50.3125L35.4103 50.05ZM40.1437 50.0447L40.5686 49.7813L40.5686 49.7813L40.1437 50.0447ZM40.1469 50.05L40.5724 49.7873L40.5719 49.7865L40.1469 50.05ZM41.9943 50.0528L41.5693 49.7893L41.5693 49.7893L41.9943 50.0528ZM41.9975 50.0476L42.4224 50.3111L42.4224 50.3111L41.9975 50.0476ZM46.7299 50.0475L46.305 50.311L46.305 50.311L46.7299 50.0475ZM46.7332 50.0528L47.1588 49.7903L47.1581 49.7893L46.7332 50.0528ZM48.5805 50.05L49.006 50.3127L49.0061 50.3125L48.5805 50.05ZM53.3162 50.0447L53.7412 49.7813L53.7412 49.7813L53.3162 50.0447ZM53.3195 50.05L52.8945 50.3134L52.8945 50.3134L53.3195 50.05ZM54.3796 50.9237L54.6131 51.3658L54.7175 51.3107L54.7862 51.2147L54.3796 50.9237ZM57.8419 50.0518C57.8681 49.9936 57.8876 49.9358 57.902 49.8836L56.9381 49.6174C56.9345 49.6306 56.9314 49.6381 56.9306 49.6398L57.8419 50.0518ZM57.0363 49.4887L57.0358 49.4891L57.7367 50.2024L57.7371 50.202L57.0363 49.4887ZM57.646 50.3193C57.7841 50.2082 57.8376 50.0633 57.8486 50.0368L56.9248 49.6539C56.9182 49.6699 56.923 49.6562 56.9344 49.6369C56.9485 49.6131 56.9751 49.5756 57.0191 49.5401L57.646 50.3193ZM57.7297 50.242C57.7396 50.2256 57.757 50.1968 57.7748 50.1629L56.8903 49.6965C56.8871 49.7026 56.8834 49.709 56.8722 49.7276L57.7297 50.242ZM57.7177 50.2623C57.7208 50.257 57.7241 50.2513 57.7297 50.2421L56.8722 49.7275C56.8673 49.7358 56.8601 49.7477 56.8527 49.7605L57.7177 50.2623ZM57.6826 50.3165C57.6895 50.3064 57.696 50.2967 57.702 50.2876L56.8684 49.7352C56.8637 49.7423 56.859 49.7493 56.8544 49.7561L57.6826 50.3165ZM57.6664 50.3402C57.6721 50.332 57.6775 50.3241 57.6825 50.3166L56.8545 49.756C56.8509 49.7613 56.8475 49.7662 56.8443 49.7709L57.6664 50.3402ZM57.6525 50.3601L57.6647 50.3427L56.846 49.7684L56.8338 49.7858L57.6525 50.3601ZM57.6274 50.3947C57.6355 50.3837 57.6433 50.373 57.6505 50.3628L56.8358 49.7831C56.832 49.7884 56.8287 49.7929 56.8257 49.7968L57.6274 50.3947ZM57.557 50.4788C57.5789 50.4543 57.5984 50.4307 57.6115 50.4148L56.8416 49.7767C56.8268 49.7945 56.8184 49.8046 56.8103 49.8137L57.557 50.4788ZM57.5399 50.4977L57.5534 50.4829L56.8139 49.8097L56.8004 49.8245L57.5399 50.4977ZM57.4278 50.6104C57.4677 50.5754 57.5121 50.5321 57.5551 50.4801L56.7852 49.842C56.7831 49.8446 56.7779 49.8503 56.7682 49.8588L57.4278 50.6104ZM57.3236 50.6913C57.3535 50.6696 57.3851 50.6453 57.4114 50.6242L56.7846 49.845C56.7703 49.8565 56.7522 49.8704 56.7371 49.8813L57.3236 50.6913ZM57.2852 50.7166L57.293 50.7118L56.7677 49.8608L56.7599 49.8656L57.2852 50.7166ZM57.2829 50.7181C57.2866 50.7157 57.2883 50.7146 57.289 50.7142L56.7561 49.868C56.746 49.8744 56.737 49.8803 56.73 49.8849L57.2829 50.7181ZM57.2749 50.7235C57.2784 50.7212 57.2808 50.7196 57.283 50.7181L56.73 49.8849C56.7256 49.8878 56.7214 49.8907 56.7182 49.8928L57.2749 50.7235ZM57.2738 50.7242L57.2739 50.7241L56.7192 49.8921L56.7191 49.8922L57.2738 50.7242ZM57.1924 50.7748C57.2299 50.754 57.2617 50.7323 57.2746 50.7237L56.7183 49.8927C56.7143 49.8954 56.7116 49.8972 56.7091 49.8989C56.7067 49.9005 56.7052 49.9015 56.7041 49.9021C56.702 49.9035 56.703 49.9028 56.7058 49.9012L57.1924 50.7748ZM57.1693 50.7877C57.1809 50.7815 57.1938 50.7744 57.2074 50.7661L56.6908 49.9099C56.6952 49.9072 56.6987 49.9053 56.7009 49.9042L57.1693 50.7877ZM57.151 50.7971C57.1567 50.7943 57.1628 50.7911 57.1692 50.7878L56.701 49.9041C56.7023 49.9034 56.7032 49.903 56.7037 49.9027L57.151 50.7971ZM57.0895 50.8255C57.1003 50.8207 57.1249 50.8101 57.1507 50.7972L56.704 49.9026C56.7053 49.9019 56.7053 49.902 56.7027 49.9031C56.6998 49.9044 56.6964 49.9059 56.6895 49.9089L57.0895 50.8255ZM57.0833 50.8281L57.0835 50.828L56.6955 49.9064L56.6953 49.9065L57.0833 50.8281ZM57.0918 50.8245L57.0924 50.8242L56.6862 49.9104L56.6856 49.9107L57.0918 50.8245ZM57.0741 50.8323C57.0764 50.8312 57.0797 50.8298 57.0888 50.8258L56.6886 49.9093C56.6809 49.9127 56.6673 49.9186 56.6528 49.9254L57.0741 50.8323ZM57.078 50.8305C57.0815 50.8286 57.0811 50.8288 57.0803 50.8293C57.079 50.8299 57.0751 50.8319 57.0695 50.8344L56.6573 49.9233C56.6359 49.933 56.6173 49.9429 56.6137 49.9448L57.078 50.8305ZM57.0575 50.841C57.067 50.8363 57.0755 50.8318 57.0782 50.8303L56.6135 49.9449L56.6129 49.9452L57.0575 50.841ZM57.0372 50.8507C57.045 50.8471 57.0519 50.8438 57.0574 50.841L56.6129 49.9452C56.6144 49.9445 56.6172 49.9431 56.6209 49.9414L57.0372 50.8507ZM56.9388 50.8863C56.9802 50.8752 57.0137 50.8614 57.0373 50.8506L56.6207 49.9415C56.6319 49.9364 56.6524 49.9277 56.6798 49.9204L56.9388 50.8863ZM56.9191 50.8912L56.9227 50.8903L56.6959 49.9164L56.6922 49.9172L56.9191 50.8912ZM56.7969 50.9047C56.7971 50.9047 56.8006 50.9047 56.8046 50.9047C56.8089 50.9046 56.8154 50.9045 56.8233 50.9041C56.8392 50.9034 56.8618 50.9018 56.8885 50.8973L56.7229 49.9111C56.7465 49.9071 56.7661 49.9057 56.7791 49.9051C56.7905 49.9046 56.8 49.9047 56.7969 49.9047V50.9047ZM56.9289 50.8847C56.8545 50.9072 56.7899 50.9047 56.7969 50.9047V49.9047C56.7959 49.9047 56.7235 49.9022 56.64 49.9274L56.9289 50.8847ZM56.5679 50.9414C56.7037 50.9414 56.8267 50.9166 56.9331 50.8834L56.6358 49.9287C56.6023 49.9391 56.581 49.9414 56.5679 49.9414V50.9414ZM56.4303 50.4605C56.6638 50.9027 56.6635 50.9028 56.6633 50.9029C56.6632 50.903 56.6629 50.9031 56.6628 50.9032C56.6624 50.9034 56.6621 50.9035 56.6618 50.9037C56.6611 50.9041 56.6605 50.9044 56.6598 50.9047C56.6585 50.9054 56.6572 50.9061 56.6559 50.9068C56.6532 50.9081 56.6507 50.9093 56.6481 50.9106C56.643 50.913 56.6381 50.9153 56.6333 50.9174C56.6238 50.9216 56.6148 50.9251 56.6067 50.928C56.5904 50.9339 56.5773 50.9374 56.5682 50.9394C56.5502 50.9433 56.5482 50.9414 56.5679 50.9414V49.9414C56.4861 49.9414 56.4154 49.9491 56.3539 49.9626C56.3231 49.9693 56.2947 49.9776 56.2684 49.987C56.2553 49.9917 56.2428 49.9967 56.2309 50.002C56.2249 50.0046 56.2191 50.0073 56.2134 50.01C56.2106 50.0114 56.2078 50.0127 56.205 50.0141C56.2037 50.0148 56.2023 50.0155 56.2009 50.0162C56.2003 50.0166 56.1996 50.0169 56.1989 50.0173C56.1986 50.0175 56.1982 50.0176 56.1979 50.0178C56.1977 50.0179 56.1975 50.018 56.1974 50.0181C56.1972 50.0182 56.1969 50.0183 56.4303 50.4605ZM56.7497 51.1183C56.774 51.0248 56.8029 50.9137 56.8304 50.8194C56.8442 50.7719 56.8559 50.7351 56.8647 50.7103C56.8692 50.6978 56.8712 50.6934 56.8706 50.6947C56.8702 50.6956 56.868 50.7006 56.8638 50.7084C56.8602 50.7152 56.8514 50.7313 56.8369 50.7515L56.0237 50.1695C55.9667 50.2492 55.9339 50.3434 55.9229 50.3742C55.9045 50.4259 55.8865 50.484 55.8704 50.5393C55.8379 50.6506 55.8053 50.7766 55.7818 50.8671L56.7497 51.1183ZM56.7451 51.136L56.7497 51.1183L55.7818 50.867L55.7772 50.8847L56.7451 51.136ZM54.2312 53.6062C55.1695 53.6062 55.7759 53.144 56.1505 52.5954C56.5063 52.0744 56.6594 51.4677 56.7453 51.1355L55.7771 50.8852C55.687 51.2335 55.5683 51.6747 55.3247 52.0315C55.0999 52.3606 54.7793 52.6062 54.2312 52.6062V53.6062ZM51.4412 51.6057C51.8779 52.3101 52.6445 53.6062 54.2312 53.6062V52.6062C53.2751 52.6062 52.7785 51.865 52.2911 51.0787L51.4412 51.6057ZM51.4379 51.6004L51.4412 51.6057L52.2911 51.0787L52.2878 51.0734L51.4379 51.6004ZM50.9403 50.9414C50.9702 50.9414 50.972 50.9453 50.9648 50.9423C50.9594 50.94 50.9723 50.9432 51.0076 50.9785C51.0944 51.0652 51.2141 51.2361 51.4368 51.5986L52.2889 51.0752C52.0785 50.7327 51.8993 50.4558 51.7143 50.271C51.6138 50.1705 51.4975 50.0821 51.3563 50.0221C51.2134 49.9613 51.0728 49.9414 50.9403 49.9414V50.9414ZM50.4427 51.5976C50.667 51.2358 50.7867 51.0652 50.8738 50.9782C50.9091 50.9429 50.9219 50.9397 50.9163 50.9421C50.9088 50.9453 50.9104 50.9414 50.9403 50.9414V49.9414C50.8078 49.9414 50.6673 49.9613 50.5245 50.0221C50.3834 50.0822 50.2675 50.1705 50.1672 50.2706C49.9831 50.4544 49.8039 50.7302 49.5928 51.0707L50.4427 51.5976ZM50.4394 51.6029L50.4427 51.5977L49.5929 51.0706L49.5897 51.0757L50.4394 51.6029ZM47.6472 53.6034C49.236 53.6034 50.0026 52.3075 50.4395 51.6028L49.5896 51.0758C49.1023 51.8618 48.6057 52.6034 47.6472 52.6034V53.6034ZM44.8571 51.6028C45.2939 52.3073 46.0604 53.6034 47.6472 53.6034V52.6034C46.6911 52.6034 46.1945 51.8622 45.707 51.0759L44.8571 51.6028ZM44.854 51.5978L44.8572 51.603L45.7069 51.0757L45.7037 51.0705L44.854 51.5978ZM44.3563 50.9414C44.3862 50.9414 44.3881 50.9453 44.3811 50.9423C44.3758 50.9401 44.3887 50.9434 44.424 50.9786C44.5109 51.0651 44.6305 51.2354 44.8533 51.5966L45.7044 51.0717C45.4941 50.7306 45.3148 50.4545 45.1299 50.2702C45.0293 50.17 44.9131 50.0818 44.7721 50.0219C44.6292 49.9613 44.4888 49.9414 44.3563 49.9414V50.9414ZM43.8592 51.5996C44.083 51.2371 44.2034 51.0657 44.2907 50.9785C44.3263 50.9429 44.3393 50.9396 44.3337 50.942C44.3262 50.9452 44.3274 50.9414 44.3563 50.9414V49.9414C44.2239 49.9414 44.0835 49.9614 43.9408 50.0224C43.8001 50.0825 43.6842 50.1709 43.5839 50.2711C43.3994 50.4554 43.2198 50.7317 43.0083 51.0742L43.8592 51.5996ZM41.0654 53.6062C42.6556 53.6062 43.4241 52.3048 43.8593 51.5995L43.0082 51.0744C42.5231 51.8606 42.024 52.6062 41.0654 52.6062V53.6062ZM38.2731 51.6056C38.7101 52.3104 39.4766 53.6062 41.0654 53.6062V52.6062C40.1069 52.6062 39.6103 51.8646 39.123 51.0787L38.2731 51.6056ZM38.2698 51.6003L38.2731 51.6056L39.1231 51.0788L39.1198 51.0735L38.2698 51.6003ZM37.7723 50.9442C37.8022 50.9442 37.8041 50.9481 37.797 50.9451C37.7918 50.9429 37.8047 50.9462 37.84 50.9814C37.9268 51.0679 38.0465 51.2382 38.2692 51.5994L39.1204 51.0744C38.91 50.7334 38.7308 50.4573 38.5458 50.273C38.4453 50.1728 38.3291 50.0846 38.188 50.0247C38.0452 49.964 37.9048 49.9442 37.7723 49.9442V50.9442ZM37.2747 51.6004C37.499 51.2386 37.6186 51.068 37.7057 50.981C37.7411 50.9457 37.7538 50.9425 37.7482 50.9449C37.7408 50.9481 37.7424 50.9442 37.7723 50.9442V49.9442C37.6398 49.9442 37.4993 49.964 37.3564 50.0249C37.2154 50.0849 37.0994 50.1733 36.9992 50.2734C36.815 50.4572 36.6358 50.733 36.4248 51.0735L37.2747 51.6004ZM34.4814 53.6062C36.074 53.6062 36.8403 52.3044 37.2753 51.5995L36.4242 51.0744C35.9389 51.861 35.442 52.6062 34.4814 52.6062V53.6062ZM31.6914 51.6056C32.1281 52.3101 32.8946 53.6062 34.4814 53.6062V52.6062C33.5253 52.6062 33.0287 51.865 32.5413 51.0787L31.6914 51.6056ZM31.688 51.6003L31.6913 51.6055L32.5413 51.0788L32.5381 51.0736L31.688 51.6003ZM31.1905 50.9442C31.2204 50.9442 31.2223 50.9481 31.2153 50.9451C31.21 50.9429 31.2229 50.9462 31.2583 50.9814C31.3451 51.0679 31.4647 51.2382 31.6875 51.5994L32.5386 51.0744C32.3283 50.7334 32.1491 50.4573 31.9641 50.273C31.8635 50.1728 31.7473 50.0846 31.6063 50.0247C31.4635 49.964 31.323 49.9442 31.1905 49.9442V50.9442ZM30.6934 51.6024C30.9172 51.2399 31.0376 51.0685 31.1249 50.9813C31.1605 50.9457 31.1735 50.9424 31.1679 50.9448C31.1604 50.948 31.1616 50.9442 31.1905 50.9442V49.9442C31.0581 49.9442 30.9178 49.9642 30.7751 50.0252C30.6343 50.0853 30.5184 50.1737 30.4181 50.2738C30.2336 50.4582 30.054 50.7345 29.8425 51.077L30.6934 51.6024ZM27.8996 53.609C29.4898 53.609 30.2583 52.3076 30.6935 51.6022L29.8424 51.0772C29.3573 51.8634 28.8582 52.609 27.8996 52.609V53.609ZM25.1096 51.6084C25.5463 52.3129 26.3129 53.609 27.8996 53.609V52.609C26.9435 52.609 26.4469 51.8677 25.9595 51.0815L25.1096 51.6084ZM25.1063 51.6031L25.1095 51.6083L25.9595 51.0816L25.9563 51.0763L25.1063 51.6031ZM24.6087 50.947C24.6386 50.947 24.6406 50.9509 24.6335 50.9479C24.6282 50.9457 24.6412 50.949 24.6765 50.9842C24.7633 51.0707 24.883 51.241 25.1057 51.6022L25.9568 51.0772C25.7465 50.7362 25.5673 50.4601 25.3823 50.2758C25.2817 50.1756 25.1655 50.0874 25.0245 50.0275C24.8817 49.9668 24.7412 49.947 24.6087 49.947V50.947ZM24.1116 51.6052C24.3355 51.2427 24.4559 51.0713 24.5431 50.9841C24.5788 50.9485 24.5917 50.9452 24.5862 50.9475C24.5787 50.9507 24.5799 50.947 24.6087 50.947V49.947C24.4763 49.947 24.336 49.967 24.1933 50.028C24.0525 50.0881 23.9367 50.1765 23.8364 50.2766C23.6518 50.461 23.4722 50.7373 23.2608 51.0798L24.1116 51.6052ZM21.3178 53.6118C22.908 53.6118 23.6765 52.3103 24.1117 51.605L23.2607 51.0799C22.7755 51.8662 22.2764 52.6118 21.3178 52.6118V53.6118ZM19.8816 52.8464C20.2246 53.3215 20.7365 53.6118 21.3178 53.6118V52.6118C21.0916 52.6118 20.8682 52.5046 20.6924 52.2611L19.8816 52.8464ZM19.5465 47.8224C19.4176 48.9829 19.3167 49.969 19.3321 50.7764C19.3474 51.5815 19.478 52.2912 19.8826 52.8478L20.6914 52.2597C20.4668 51.9508 20.3459 51.4901 20.3319 50.7573C20.318 50.0268 20.4099 49.1076 20.5404 47.9328L19.5465 47.8224ZM19.5508 47.7827L19.5464 47.8231L20.5405 47.932L20.5449 47.8916L19.5508 47.7827ZM19.7365 45.1138C19.7788 45.6824 19.6464 46.9113 19.5508 47.7827L20.5449 47.8917C20.6346 47.0731 20.7847 45.7247 20.7338 45.0397L19.7365 45.1138ZM15.3801 52.7061C15.9899 51.249 16.8831 49.5185 17.8259 48.1105C18.2976 47.4059 18.7732 46.7949 19.2231 46.3416C19.6854 45.8757 20.0686 45.6297 20.3499 45.5634L20.1204 44.5901C19.5593 44.7224 19.0118 45.1347 18.5132 45.6372C18.0022 46.1522 17.4866 46.8197 16.9949 47.5541C16.0108 49.0239 15.0883 50.813 14.4576 52.32L15.3801 52.7061ZM14.1136 53.6119C14.6912 53.6119 15.1652 53.2248 15.3808 52.7044L14.4569 52.3217C14.3658 52.5417 14.2128 52.6119 14.1136 52.6119V53.6119ZM13.9849 53.6036C14.0461 53.6128 14.1016 53.6119 14.1136 53.6119V52.6119C14.1087 52.6119 14.1066 52.6119 14.1048 52.6119C14.1033 52.6119 14.1038 52.6118 14.1054 52.6119C14.1086 52.612 14.1192 52.6125 14.1341 52.6148L13.9849 53.6036ZM12.7864 52.539C12.9542 53.1013 13.4148 53.5663 14.0255 53.608L14.0936 52.6103C13.987 52.6031 13.8206 52.5074 13.7447 52.2531L12.7864 52.539ZM12.6882 41.8991C11.6886 43.7476 11.6906 46.2743 11.9313 48.3428C12.1749 50.4366 12.6791 52.181 12.7866 52.5397L13.7445 52.2524C13.6445 51.9191 13.1585 50.2379 12.9246 48.2272C12.6876 46.191 12.7246 43.9342 13.5678 42.3748L12.6882 41.8991ZM16.3281 39.5208C14.7266 39.6458 13.4582 40.4778 12.6884 41.8988L13.5676 42.3751C14.1781 41.2483 15.1472 40.616 16.4059 40.5178L16.3281 39.5208ZM17.813 39.039C17.8197 39.0195 17.7855 39.1188 17.5317 39.2435C17.2924 39.3611 16.9052 39.4753 16.3277 39.5208L16.4062 40.5177C17.0715 40.4653 17.5899 40.3291 17.9726 40.1411C18.3407 39.9603 18.6449 39.6989 18.7598 39.3609L17.813 39.039ZM17.5872 38.575C17.6877 38.7124 17.7521 38.8419 17.7843 38.9425C17.8208 39.0565 17.7996 39.0785 17.813 39.0391L18.7598 39.3609C18.8454 39.1091 18.8028 38.844 18.7367 38.6375C18.6662 38.4176 18.5468 38.1932 18.3946 37.985L17.5872 38.575ZM14.2627 37.6527C15.7527 37.164 17.0337 37.8152 17.5868 38.5744L18.3951 37.9856C17.6038 36.8994 15.8803 36.0698 13.951 36.7025L14.2627 37.6527ZM8.67127 45.8382C9.10423 43.9326 9.96536 42.0472 11.0031 40.5494C12.0523 39.0349 13.2306 37.9894 14.2619 37.653L13.9518 36.7023C12.6124 37.1393 11.2769 38.3981 10.1811 39.9799C9.07373 41.5782 8.15863 43.581 7.69613 45.6167L8.67127 45.8382ZM9.202 50.9497C8.65695 50.2746 8.43442 49.3608 8.39999 48.4022C8.36577 47.4492 8.51963 46.5083 8.67137 45.8378L7.69603 45.6171C7.53423 46.3321 7.36214 47.366 7.40064 48.4381C7.43894 49.5045 7.68781 50.6662 8.42394 51.5779L9.202 50.9497ZM9.17586 53.1283C9.68866 52.5251 9.69925 51.5693 9.20291 50.9509L8.42303 51.5768C8.6214 51.8239 8.61395 52.2453 8.41399 52.4805L9.17586 53.1283ZM7.12936 53.0968C7.38901 53.4182 7.75358 53.6066 8.14512 53.6129C8.53678 53.6193 8.90684 53.4427 9.17485 53.1294L8.41501 52.4793C8.32438 52.5853 8.23094 52.6142 8.16135 52.613C8.09165 52.6119 7.99723 52.5798 7.90726 52.4684L7.12936 53.0968ZM5.95482 45.0425C5.21716 48.2907 5.58167 51.1816 7.12942 53.0969L7.9072 52.4683C6.62648 50.8835 6.22861 48.3524 6.92999 45.264L5.95482 45.0425ZM13.4804 34.6013C11.6683 35.1919 10.0238 36.7916 8.73079 38.7006C7.42927 40.622 6.43454 42.9284 5.9548 45.0426L6.93001 45.2639C7.38165 43.2735 8.32555 41.0819 9.55872 39.2614C10.8004 37.4283 12.2867 36.0421 13.7903 35.5521L13.4804 34.6013ZM19.7505 36.5489C18.5766 34.9372 16.1841 33.7194 13.4803 34.6014L13.7904 35.5521C16.0262 34.8228 17.9868 35.8259 18.9422 37.1376L19.7505 36.5489ZM20.4282 40.1957C20.84 38.9969 20.5664 37.666 19.7501 36.5484L18.9426 37.1382C19.6014 38.0402 19.7699 39.0339 19.4825 39.8709L20.4282 40.1957ZM16.5233 42.693C17.7565 42.596 18.6448 42.2523 19.276 41.7766C19.9085 41.2999 20.2492 40.7159 20.4281 40.196L19.4826 39.8706C19.357 40.2354 19.1214 40.6409 18.6741 40.978C18.2254 41.3162 17.5303 41.6107 16.4449 41.6961L16.5233 42.693ZM15.0808 43.5681C15.3683 43.0381 15.8101 42.7492 16.5234 42.693L16.4448 41.6961C15.4303 41.776 14.6676 42.2329 14.2018 43.0911L15.0808 43.5681ZM14.8948 49.1261C14.7253 48.1499 14.5997 47.0623 14.6073 46.0559C14.615 45.0365 14.7595 44.1616 15.081 43.5676L14.2016 43.0916C13.7629 43.9021 13.6154 44.9747 13.6073 46.0484C13.5991 47.1351 13.734 48.2863 13.9096 49.2972L14.8948 49.1261ZM20.6081 42.3753C19.858 42.3471 19.1472 42.6177 18.5023 43.0388C17.8578 43.4596 17.2525 44.0476 16.6992 44.7031C15.5931 46.0137 14.6408 47.6597 13.9579 48.9822L14.8465 49.441C15.517 48.1423 16.429 46.5737 17.4634 45.3481C17.9804 44.7356 18.5144 44.2251 19.049 43.8761C19.5832 43.5273 20.0912 43.3566 20.5704 43.3746L20.6081 42.3753ZM22.0075 43.1741C21.6759 42.6989 21.1801 42.3989 20.6098 42.3754L20.5687 43.3746C20.7923 43.3838 21.0138 43.4975 21.1875 43.7463L22.0075 43.1741ZM22.5178 44.823C22.4693 44.2033 22.3322 43.6359 22.0065 43.1726L21.1885 43.7478C21.368 44.0031 21.479 44.3666 21.5208 44.9009L22.5178 44.823ZM30.8234 41.1456C25.9607 41.7379 23.4481 43.0813 21.7073 44.4712L22.3313 45.2527C23.9106 43.9916 26.2435 42.7109 30.9443 42.1383L30.8234 41.1456ZM35.4776 1.11928C34.9825 1.82342 25.175 16.2275 30.394 41.7421L31.3737 41.5417C26.2258 16.3747 35.9066 2.24782 36.2956 1.69445L35.4776 1.11928ZM35.5523 1.03382C35.55 1.03599 35.5264 1.05801 35.5017 1.08778L36.2716 1.72594C36.2544 1.74665 36.2382 1.7615 36.2432 1.75681L35.5523 1.03382ZM35.5442 1.04175L35.5442 1.04176L36.2513 1.74887L36.2513 1.74886L35.5442 1.04175ZM35.5636 1.02335L35.5636 1.02337L36.2319 1.76724L36.2319 1.76722L35.5636 1.02335ZM35.4868 1.11569C35.5209 1.06085 35.5614 1.02509 35.5524 1.03371L36.2431 1.75686C36.2441 1.75587 36.2941 1.71112 36.3361 1.6436L35.4868 1.11569ZM35.6377 0.934533C35.5987 0.974274 35.5572 1.01981 35.5143 1.07588L36.3086 1.68341C36.3198 1.6687 36.3324 1.65436 36.3521 1.63422L35.6377 0.934533ZM35.7379 0.837628C35.6824 0.882271 35.6405 0.92848 35.6099 0.965335L36.3799 1.60342C36.3854 1.59672 36.3796 1.60482 36.3647 1.6168L35.7379 0.837628ZM35.8565 0.75196C35.8299 0.769876 35.7848 0.799915 35.7379 0.837635L36.3647 1.6168C36.3732 1.60993 36.3835 1.60269 36.4147 1.58166L35.8565 0.75196ZM35.849 0.757155L35.8489 0.757171L36.4223 1.57645L36.4224 1.57644L35.849 0.757155ZM35.8754 0.739252L35.856 0.752326L36.4153 1.58127L36.4347 1.56819L35.8754 0.739252ZM35.9751 0.67499C35.9153 0.707049 35.8672 0.744515 35.854 0.754531L36.4561 1.55291C36.4609 1.54927 36.4635 1.54734 36.4658 1.54567C36.4678 1.54417 36.4682 1.54388 36.4677 1.54427C36.4667 1.54498 36.4594 1.54998 36.4478 1.55624L35.9751 0.67499ZM36.1978 0.585209C36.1299 0.605706 36.0588 0.63235 35.9849 0.66986L36.4379 1.56137C36.4498 1.55533 36.4644 1.54931 36.4867 1.54259L36.1978 0.585209ZM36.1872 0.589741C36.1798 0.592709 36.1864 0.589973 36.1951 0.586973C36.2048 0.583617 36.227 0.576385 36.2573 0.571167L36.4272 1.55663C36.468 1.5496 36.5008 1.53934 36.521 1.53236C36.5402 1.52573 36.5573 1.51876 36.5604 1.51749L36.1872 0.589741ZM36.1824 0.591728L36.1823 0.591745L36.5653 1.51549L36.5654 1.51547L36.1824 0.591728ZM36.2267 0.574865C36.2075 0.581489 36.1904 0.588453 36.1873 0.589713L36.5604 1.51749C36.5635 1.51624 36.5633 1.51635 36.5625 1.51664C36.5615 1.51705 36.5578 1.51846 36.5526 1.52027L36.2267 0.574865ZM36.5791 0.523071C36.4716 0.523071 36.3648 0.536554 36.2601 0.564636L36.5191 1.5305C36.5362 1.52592 36.5557 1.52307 36.5791 1.52307V0.523071ZM36.7326 0.528933L36.5995 0.523489L36.5586 1.52265L36.6917 1.5281L36.7326 0.528933ZM37.8098 1.12563C37.5572 0.764713 37.162 0.528515 36.7122 0.528515V1.52851C36.7946 1.52851 36.9001 1.56995 36.9904 1.69897L37.8098 1.12563ZM42.9381 41.5477C48.0638 16.1565 38.3042 1.82555 37.8085 1.1238L36.9917 1.70081C37.3801 2.25052 47.0137 16.3048 41.9579 41.3498L42.9381 41.5477ZM57.9394 48.971C57.8891 48.7475 57.4193 46.9702 55.2407 45.1308C53.0622 43.2915 49.2179 41.4264 42.4833 40.95L42.4127 41.9475C48.9901 42.4128 52.6161 44.2236 54.5956 45.8949C56.575 47.5661 56.9511 49.1339 56.9639 49.1908L57.9394 48.971ZM57.9518 49.0527C57.9516 49.0509 57.9508 49.0412 57.9495 49.0307C57.9482 49.0198 57.9458 49.0014 57.9412 48.9794L56.9621 49.1825C56.9586 49.1659 56.9571 49.1533 56.9565 49.1483C56.9559 49.1437 56.9556 49.1402 56.956 49.1445L57.9518 49.0527ZM57.9458 49.0151C57.9492 49.0316 57.9508 49.0441 57.9514 49.049C57.9519 49.0537 57.9522 49.0572 57.9518 49.053L56.956 49.1442C56.9562 49.1462 56.957 49.1558 56.9583 49.1664C56.9596 49.1773 56.962 49.1956 56.9665 49.2175L57.9458 49.0151ZM57.9657 49.1592L57.9522 49.0531L56.9602 49.1796L56.9737 49.2857L57.9657 49.1592ZM57.9787 49.3368C57.9787 49.2642 57.9702 49.1967 57.9662 49.1636L56.9732 49.2813C56.9756 49.3015 56.9769 49.3133 56.9779 49.3238C56.9787 49.3336 56.9787 49.337 56.9787 49.3368H57.9787ZM57.9775 49.305C57.9779 49.3103 57.9787 49.3217 57.9787 49.3368H56.9787C56.9787 49.3576 56.9799 49.3749 56.9808 49.3861L57.9775 49.305ZM57.9772 49.3015C57.977 49.3 57.977 49.3001 57.9771 49.3005C57.9771 49.301 57.9773 49.3027 57.9775 49.305L56.9808 49.386C56.9815 49.395 56.9824 49.4031 56.9825 49.4047L57.9772 49.3015ZM57.9784 49.3139L57.9776 49.3059L56.9821 49.4003L56.9829 49.4084L57.9784 49.3139ZM57.9805 49.3455C57.9801 49.3358 57.9795 49.3276 57.9791 49.3221L56.9821 49.4002C56.982 49.3977 56.9816 49.3926 56.9813 49.3859L57.9805 49.3455ZM57.981 49.3694C57.981 49.3601 57.9808 49.3517 57.9804 49.3444L56.9814 49.387C56.9812 49.3822 56.981 49.3763 56.981 49.3694H57.981ZM57.9774 49.4475C57.9792 49.4273 57.981 49.4007 57.981 49.3694H56.981C56.981 49.3621 56.9814 49.3577 56.9812 49.36L57.9774 49.4475ZM57.9761 49.461L57.9771 49.4508L56.9815 49.3566L56.9806 49.3669L57.9761 49.461ZM57.9738 49.4835L57.9757 49.4654L56.981 49.3624L56.9791 49.3806L57.9738 49.4835ZM57.9754 49.4658L57.9756 49.4619L56.9774 49.4022L56.9771 49.406L57.9754 49.4658ZM57.9575 49.6365C57.97 49.5659 57.9735 49.4967 57.9754 49.4654L56.9771 49.4064C56.976 49.426 56.9752 49.438 56.9743 49.4489C56.9734 49.4592 56.9727 49.4627 56.9729 49.4617L57.9575 49.6365ZM57.9368 49.7485C57.9429 49.7187 57.9533 49.6696 57.9605 49.6175L56.9699 49.4807C56.9681 49.4939 56.9649 49.5101 56.9576 49.5456L57.9368 49.7485ZM57.926 49.7939C57.9287 49.7825 57.9302 49.7762 57.9316 49.7706L56.9627 49.5235C56.9586 49.5395 56.955 49.5547 56.9527 49.5647L57.926 49.7939ZM57.8927 49.9137C57.9103 49.8629 57.9214 49.8137 57.926 49.7939L56.9527 49.5647C56.9512 49.571 56.9501 49.5756 56.949 49.5799C56.948 49.5841 56.9473 49.5869 56.9468 49.5889C56.9457 49.5932 56.9459 49.5919 56.9475 49.5874L57.8927 49.9137ZM39.8131 44.3021H37.4808V45.3021H39.8131V44.3021ZM37.0311 5.66221C39.6267 11.0023 44.4302 24.5454 39.3284 44.6793L40.2978 44.9249C45.4682 24.52 40.6084 10.7345 37.9305 5.22506L37.0311 5.66221ZM37.9808 44.8021V5.44364H36.9808V44.8021H37.9808ZM36.1764 44.8022V5.72942H35.1764V44.8022H36.1764ZM33.4772 45.3022H35.6764V44.3022H33.4772V45.3022ZM35.2244 5.51572C32.5276 11.2202 27.9222 24.9169 32.9926 44.925L33.9619 44.6794C28.959 24.9375 33.5111 11.4795 36.1284 5.94311L35.2244 5.51572ZM54.0648 50.2482L54.0603 50.2658L55.0281 50.5172L55.0327 50.4996L54.0648 50.2482ZM54.626 50.8679L54.6268 50.8677L54.4708 49.88L54.4701 49.8801L54.626 50.8679ZM54.9152 48.482C54.3709 49.0588 54.1669 49.8526 54.0641 50.2483L55.032 50.4996C55.1413 50.0787 55.2981 49.5333 55.6425 49.1683L54.9152 48.482ZM41.9516 44.1009C50.9849 44.6627 53.9698 47.74 54.8606 49.0993L55.697 48.5511C54.59 46.8618 51.2729 43.6787 42.0136 43.1028L41.9516 44.1009ZM41.8187 46.3535C42.0547 45.4605 42.2703 44.5816 42.4699 43.7139L41.4953 43.4897C41.2979 44.3479 41.0849 45.2163 40.8519 46.098L41.8187 46.3535ZM40.4759 47.4851C41.1499 47.4851 41.6563 46.9671 41.8186 46.3537L40.8519 46.0978C40.7751 46.388 40.5868 46.4851 40.4759 46.4851V47.4851ZM32.8118 47.4851H40.4759V46.4851H32.8118V47.4851ZM31.4691 46.3536C31.6314 46.9672 32.1379 47.4851 32.8118 47.4851V46.4851C32.7008 46.4851 32.5126 46.388 32.4358 46.0979L31.4691 46.3536ZM30.8632 43.895C31.0512 44.7013 31.2508 45.5196 31.4687 46.3523L32.4361 46.0992C32.221 45.277 32.0236 44.4676 31.8371 43.6679L30.8632 43.895ZM22.2316 48.0419C23.0123 47.3128 23.8847 46.5435 25.2602 45.8698C26.6393 45.1941 28.5499 44.6028 31.4066 44.2783L31.2938 43.2847C28.3514 43.6189 26.3248 44.2347 24.8202 44.9717C23.3119 45.7106 22.3539 46.5594 21.5491 47.3111L22.2316 48.0419ZM22.367 47.9201C22.3738 47.856 22.3804 47.7938 22.3873 47.7314L21.3933 47.6216C21.3862 47.6867 21.3793 47.7512 21.3726 47.8149L22.367 47.9201ZM22.3328 48.2325C22.3456 48.1233 22.3565 48.0195 22.367 47.9201L21.3726 47.8149C21.362 47.915 21.3516 48.0136 21.3396 48.1167L22.3328 48.2325ZM22.1395 50.8268C22.1144 50.2213 22.243 49.0439 22.3332 48.2296L21.3392 48.1196C21.2534 48.8949 21.1113 50.1672 21.1404 50.8682L22.1395 50.8268ZM21.8161 49.7884C21.6816 50.0075 21.5819 50.1616 21.4997 50.2724C21.4161 50.3851 21.37 50.4259 21.3503 50.4399L21.9296 51.2551C22.0746 51.152 22.1942 51.0146 22.3029 50.8681C22.4131 50.7196 22.5322 50.5334 22.6683 50.3116L21.8161 49.7884ZM21.8205 49.7813L21.8172 49.7865L22.6672 50.3134L22.6704 50.3082L21.8205 49.7813ZM24.6128 47.7807C23.024 47.7807 22.2574 49.0766 21.8205 49.7813L22.6704 50.3083C23.1577 49.5223 23.6543 48.7807 24.6128 48.7807V47.7807ZM27.4028 49.7813C26.9661 49.0768 26.1995 47.7807 24.6128 47.7807V48.7807C25.5689 48.7807 26.0655 49.522 26.5529 50.3082L27.4028 49.7813ZM27.4062 49.7866L27.4029 49.7814L26.5529 50.3081L26.5561 50.3134L27.4062 49.7866ZM27.9037 50.4427C27.8738 50.4427 27.8719 50.4388 27.8789 50.4418C27.8842 50.444 27.8713 50.4407 27.8359 50.4055C27.7491 50.319 27.6295 50.1487 27.4067 49.7875L26.5556 50.3125C26.7659 50.6535 26.9451 50.9296 27.1301 51.1139C27.2307 51.2141 27.3469 51.3023 27.4879 51.3622C27.6307 51.4229 27.7712 51.4427 27.9037 51.4427V50.4427ZM28.4013 49.7866C28.177 50.1483 28.0573 50.3189 27.9702 50.4059C27.9349 50.4412 27.9221 50.4444 27.9277 50.442C27.9352 50.4388 27.9336 50.4427 27.9037 50.4427V51.4427C28.0362 51.4427 28.1767 51.4229 28.3195 51.362C28.4606 51.302 28.5765 51.2136 28.6768 51.1135C28.8609 50.9297 29.0401 50.6539 29.2512 50.3134L28.4013 49.7866ZM28.4045 49.7813L28.4013 49.7865L29.2512 50.3135L29.2544 50.3083L28.4045 49.7813ZM31.1968 47.7807C29.608 47.7807 28.8414 49.0766 28.4045 49.7813L29.2544 50.3083C29.7417 49.5223 30.2383 48.7807 31.1968 48.7807V47.7807ZM33.9869 49.7813C33.5501 49.0768 32.7836 47.7807 31.1968 47.7807V48.7807C32.1529 48.7807 32.6495 49.522 33.137 50.3082L33.9869 49.7813ZM33.9902 49.7866L33.9869 49.7813L33.1369 50.3081L33.1402 50.3134L33.9902 49.7866ZM34.4877 50.4427C34.4588 50.4427 34.4575 50.439 34.4649 50.4421C34.4703 50.4444 34.4573 50.441 34.4217 50.4055C34.3344 50.3185 34.214 50.1477 33.9901 49.7865L33.1402 50.3134C33.3517 50.6545 33.5313 50.93 33.7158 51.1139C33.8161 51.2138 33.9319 51.3019 34.0725 51.3619C34.2151 51.4227 34.3553 51.4427 34.4877 51.4427V50.4427ZM34.9853 49.7866C34.761 50.1483 34.6413 50.3189 34.5543 50.4059C34.5189 50.4412 34.5061 50.4444 34.5118 50.442C34.5192 50.4388 34.5176 50.4427 34.4877 50.4427V51.4427C34.6202 51.4427 34.7607 51.4229 34.9036 51.362C35.0446 51.302 35.1606 51.2136 35.2608 51.1135C35.445 50.9297 35.6242 50.6539 35.8352 50.3134L34.9853 49.7866ZM37.7786 47.7807C36.186 47.7807 35.4197 49.0825 34.9847 49.7874L35.8358 50.3125C36.3211 49.5259 36.8179 48.7807 37.7786 48.7807V47.7807ZM40.5686 49.7813C40.1319 49.0769 39.3653 47.7807 37.7786 47.7807V48.7807C38.7347 48.7807 39.2313 49.522 39.7187 50.3082L40.5686 49.7813ZM40.5719 49.7865L40.5686 49.7813L39.7187 50.3082L39.722 50.3134L40.5719 49.7865ZM41.0717 50.4455C41.0419 50.4455 41.04 50.4416 41.0471 50.4446C41.0524 50.4469 41.0393 50.4435 41.0038 50.408C40.9165 50.321 40.7963 50.1499 40.5724 49.7873L39.7215 50.3127C39.9329 50.6551 40.1127 50.9317 40.2978 51.1162C40.3984 51.2166 40.5147 51.3049 40.6558 51.3649C40.7987 51.4256 40.9392 51.4455 41.0717 51.4455V50.4455ZM41.5693 49.7893C41.345 50.1511 41.2254 50.3217 41.1383 50.4087C41.1029 50.444 41.0902 50.4472 41.0958 50.4448C41.1032 50.4416 41.1016 50.4455 41.0717 50.4455V51.4455C41.2042 51.4455 41.3447 51.4257 41.4876 51.3648C41.6286 51.3048 41.7446 51.2164 41.8448 51.1163C42.029 50.9325 42.2082 50.6567 42.4192 50.3162L41.5693 49.7893ZM41.5726 49.7841L41.5693 49.7893L42.4192 50.3163L42.4224 50.3111L41.5726 49.7841ZM44.3649 47.7835C42.776 47.7835 42.0095 49.0794 41.5725 49.7841L42.4224 50.3111C42.9097 49.5251 43.4064 48.7835 44.3649 48.7835V47.7835ZM47.1549 49.784C46.7182 49.0796 45.9516 47.7835 44.3649 47.7835V48.7835C45.321 48.7835 45.8175 49.5247 46.305 50.311L47.1549 49.784ZM47.1581 49.7893L47.1549 49.784L46.305 50.311L46.3083 50.3163L47.1581 49.7893ZM47.6558 50.4455C47.6259 50.4455 47.6239 50.4416 47.631 50.4446C47.6363 50.4468 47.6233 50.4435 47.588 50.4083C47.5012 50.3218 47.3815 50.1515 47.1588 49.7903L46.3076 50.3153C46.518 50.6563 46.6972 50.9324 46.8822 51.1167C46.9828 51.2169 47.0989 51.3051 47.24 51.365C47.3828 51.4257 47.5232 51.4455 47.6558 51.4455V50.4455ZM48.1551 49.7873C47.9312 50.1499 47.811 50.321 47.7237 50.408C47.6881 50.4435 47.6751 50.4469 47.6804 50.4446C47.6875 50.4416 47.6856 50.4455 47.6558 50.4455V51.4455C47.7883 51.4455 47.9288 51.4256 48.0717 51.3649C48.2128 51.3049 48.3291 51.2166 48.4297 51.1162C48.6148 50.9317 48.7945 50.6551 49.006 50.3127L48.1551 49.7873ZM50.9489 47.7807C49.3587 47.7807 48.5902 49.0821 48.155 49.7874L49.0061 50.3125C49.4912 49.5263 49.9903 48.7807 50.9489 48.7807V47.7807ZM53.7412 49.7813C53.3042 49.0765 52.5377 47.7807 50.9489 47.7807V48.7807C51.9074 48.7807 52.404 49.5223 52.8913 50.3082L53.7412 49.7813ZM53.7445 49.7866L53.7412 49.7813L52.8912 50.3081L52.8945 50.3134L53.7445 49.7866ZM54.242 50.4427C54.2132 50.4427 54.2118 50.439 54.2192 50.4421C54.2246 50.4444 54.2116 50.441 54.176 50.4055C54.0887 50.3185 53.9683 50.1477 53.7444 49.7865L52.8945 50.3134C53.106 50.6545 53.2856 50.93 53.4701 51.1139C53.5704 51.2138 53.6862 51.3019 53.8268 51.3619C53.9694 51.4227 54.1096 51.4427 54.242 51.4427V50.4427ZM54.3796 50.9237C54.1462 50.4815 54.1464 50.4814 54.1467 50.4813C54.1467 50.4812 54.147 50.4811 54.1472 50.481C54.1475 50.4808 54.1478 50.4807 54.1482 50.4805C54.1488 50.4801 54.1495 50.4798 54.1501 50.4795C54.1515 50.4788 54.1528 50.4781 54.1541 50.4774C54.1567 50.4761 54.1593 50.4749 54.1618 50.4736C54.1669 50.4712 54.1718 50.4689 54.1766 50.4668C54.1862 50.4626 54.1951 50.4591 54.2032 50.4561C54.2195 50.4503 54.2326 50.4468 54.2417 50.4448C54.2598 50.4409 54.2617 50.4427 54.242 50.4427V51.4427C54.3238 51.4427 54.3946 51.4351 54.456 51.4216C54.4868 51.4148 54.5153 51.4066 54.5415 51.3972C54.5546 51.3925 54.5672 51.3875 54.5791 51.3822C54.5851 51.3796 54.5909 51.3769 54.5966 51.3742C54.5994 51.3728 54.6022 51.3714 54.6049 51.37C54.6063 51.3694 54.6077 51.3687 54.609 51.368C54.6097 51.3676 54.6104 51.3672 54.6111 51.3669C54.6114 51.3667 54.6117 51.3665 54.6121 51.3664C54.6122 51.3663 54.6125 51.3661 54.6126 51.3661C54.6128 51.366 54.6131 51.3658 54.3796 50.9237ZM54.0602 50.2659C54.036 50.3594 54.0071 50.4705 53.9796 50.5648C53.9657 50.6123 53.9541 50.6491 53.9452 50.6739C53.9407 50.6864 53.9388 50.6908 53.9394 50.6894C53.9398 50.6886 53.942 50.6835 53.9461 50.6758C53.9497 50.6689 53.9586 50.6529 53.973 50.6327L54.7862 51.2147C54.8433 51.1349 54.876 51.0408 54.887 51.01C54.9055 50.9583 54.9234 50.9002 54.9396 50.8449C54.972 50.7336 55.0047 50.6076 55.0282 50.5171L54.0602 50.2659Z" fill="#222532"/>
<path d="M7.25014 35.1558C7.1351 34.9898 6.08854 33.5444 4.74876 33.5444C4.12849 33.5444 3.24204 33.852 2.54509 35.3137L1.76691 36.9469H8.49961L7.25014 35.1558Z" fill="white" stroke="#222532"/>
<path fill-rule="evenodd" clip-rule="evenodd" d="M5.50027 39.0997L6.42732 39.2167L6.31006 40.3327C5.96944 43.3485 3.33498 46.5304 3.2222 46.6665L2.00194 48.1255L1.6997 46.0841C1.34106 43.6834 1.59593 41.8379 2.45531 40.5994C3.65749 38.8656 5.50027 39.0997 5.50027 39.0997ZM3.84245 41.9958C3.68231 42.2245 3.56276 42.5157 3.47931 42.8587L3.47931 42.8587C3.67104 42.513 3.85599 42.151 4.01388 41.7862C3.95523 41.8488 3.89659 41.9169 3.84245 41.9958Z" fill="white"/>
<path d="M6.42732 39.2167L6.92458 39.269L6.97574 38.782L6.48994 38.7207L6.42732 39.2167ZM5.50027 39.0997L5.43726 39.5957L5.43764 39.5958L5.50027 39.0997ZM6.31006 40.3327L6.80692 40.3888L6.80733 40.3849L6.31006 40.3327ZM3.2222 46.6665L3.60574 46.9873L3.60719 46.9856L3.2222 46.6665ZM2.00194 48.1255L1.50733 48.1987L1.67054 49.3011L2.38548 48.4463L2.00194 48.1255ZM1.6997 46.0841L2.1943 46.0108L2.19421 46.0102L1.6997 46.0841ZM2.45531 40.5994L2.86609 40.8845L2.8662 40.8843L2.45531 40.5994ZM3.47931 42.8587L2.99349 42.7405L2.9549 42.899L3.0173 43.0499L3.47931 42.8587ZM3.84245 41.9958L4.25201 42.2827L4.2548 42.2786L3.84245 41.9958ZM3.47931 42.8587L3.01731 43.0499L3.41372 44.0079L3.91657 43.1012L3.47931 42.8587ZM4.01388 41.7862L4.47273 41.9849L3.64899 41.4444L4.01388 41.7862ZM6.48994 38.7207L5.5629 38.6036L5.43764 39.5958L6.36469 39.7128L6.48994 38.7207ZM6.80733 40.3849L6.92458 39.269L5.93005 39.1645L5.8128 40.2804L6.80733 40.3849ZM3.60719 46.9856C3.67127 46.9082 4.37562 46.057 5.10918 44.8372C5.83672 43.6274 6.62449 42.0039 6.80691 40.3888L5.81322 40.2766C5.65502 41.6773 4.95524 43.1528 4.2522 44.3219C3.55518 45.4809 2.88591 46.2887 2.83721 46.3475L3.60719 46.9856ZM2.38548 48.4463L3.60574 46.9873L2.83866 46.3458L1.61841 47.8047L2.38548 48.4463ZM1.20509 46.1573L1.50733 48.1987L2.49655 48.0523L2.1943 46.0108L1.20509 46.1573ZM2.04452 40.3144C1.0793 41.7054 0.838623 43.7042 1.20518 46.1579L2.19421 46.0102C1.8435 43.6625 2.11257 41.9704 2.86609 40.8845L2.04452 40.3144ZM5.50027 39.0997C5.56328 38.6037 5.56303 38.6036 5.56277 38.6036C5.56267 38.6036 5.56241 38.6036 5.56221 38.6035C5.56183 38.6035 5.56142 38.6034 5.56098 38.6034C5.56009 38.6033 5.5591 38.6032 5.55798 38.603C5.55576 38.6028 5.55308 38.6025 5.54995 38.6021C5.5437 38.6014 5.53565 38.6006 5.52589 38.5997C5.50637 38.5978 5.47996 38.5957 5.44727 38.5938C5.38196 38.5901 5.29122 38.5874 5.18012 38.5904C4.95854 38.5963 4.65215 38.625 4.30327 38.7153C3.60022 38.8974 2.72662 39.3306 2.04442 40.3145L2.8662 40.8843C3.38618 40.1344 4.03506 39.8178 4.55395 39.6834C4.81603 39.6155 5.04547 39.5944 5.20698 39.59C5.28743 39.5879 5.35004 39.5899 5.39021 39.5922C5.41026 39.5934 5.42461 39.5946 5.43267 39.5953C5.4367 39.5957 5.43914 39.596 5.43994 39.596C5.44033 39.5961 5.44031 39.5961 5.43987 39.596C5.43965 39.596 5.43932 39.596 5.43889 39.5959C5.43867 39.5959 5.43843 39.5959 5.43816 39.5958C5.43802 39.5958 5.4378 39.5958 5.43773 39.5958C5.4375 39.5957 5.43726 39.5957 5.50027 39.0997ZM3.96513 42.9769C4.03883 42.674 4.13787 42.4456 4.25199 42.2827L3.43292 41.709C3.22675 42.0033 3.0867 42.3574 2.99349 42.7405L3.96513 42.9769ZM3.94132 42.6675L3.94132 42.6675L3.0173 43.0499L3.01731 43.0499L3.94132 42.6675ZM3.55503 41.5876C3.40544 41.9332 3.22847 42.2801 3.04206 42.6162L3.91657 43.1012C4.1136 42.7459 4.30653 42.3688 4.47273 41.9849L3.55503 41.5876ZM4.2548 42.2786C4.28952 42.228 4.32987 42.1803 4.37876 42.1281L3.64899 41.4444C3.58059 41.5174 3.50366 41.6058 3.43011 41.713L4.2548 42.2786Z" fill="#222532"/>
<path fill-rule="evenodd" clip-rule="evenodd" d="M12.4468 33.0404C12.4468 34.1781 11.6776 35.1035 10.7348 35.1035C9.79202 35.1035 9.02515 34.1781 9.02515 33.0404C9.02515 31.9026 9.79202 30.9772 10.7348 30.9772C11.6799 30.9772 12.4468 31.9026 12.4468 33.0404ZM10.8295 33.0403C10.8295 32.9777 10.7867 32.926 10.7348 32.926C10.6829 32.926 10.6423 32.9777 10.6423 33.0403C10.6423 33.1655 10.8295 33.1655 10.8295 33.0403Z" fill="white"/>
<path d="M10.7348 35.6035C12.0369 35.6035 12.9468 34.3631 12.9468 33.0404H11.9468C11.9468 33.9931 11.3184 34.6035 10.7348 34.6035V35.6035ZM8.52515 33.0404C8.52515 34.3622 9.43203 35.6035 10.7348 35.6035V34.6035C10.152 34.6035 9.52515 33.994 9.52515 33.0404H8.52515ZM10.7348 30.4772C9.43203 30.4772 8.52515 31.7185 8.52515 33.0404H9.52515C9.52515 32.0867 10.152 31.4772 10.7348 31.4772V30.4772ZM12.9468 33.0404C12.9468 31.7181 12.0395 30.4772 10.7348 30.4772V31.4772C11.3203 31.4772 11.9468 32.0871 11.9468 33.0404H12.9468ZM10.7348 33.426C10.5862 33.426 10.4768 33.3513 10.4166 33.2787C10.3568 33.2065 10.3295 33.1212 10.3295 33.0403H11.3295C11.3295 32.7936 11.1467 32.426 10.7348 32.426V33.426ZM11.1423 33.0403C11.1423 33.1143 11.1188 33.1981 11.0593 33.2724C10.9981 33.3486 10.886 33.426 10.7348 33.426V32.426C10.3092 32.426 10.1423 32.8105 10.1423 33.0403H11.1423ZM10.3295 33.0403C10.3295 32.9365 10.3733 32.8216 10.4675 32.7376C10.5527 32.6616 10.6524 32.6342 10.7359 32.6342C10.8195 32.6342 10.9192 32.6616 11.0044 32.7376C11.0986 32.8216 11.1423 32.9365 11.1423 33.0403H10.1423C10.1423 33.2067 10.2095 33.3686 10.3388 33.4839C10.4591 33.5912 10.6056 33.6342 10.7359 33.6342C10.8663 33.6342 11.0128 33.5912 11.1331 33.4839C11.2624 33.3686 11.3295 33.2067 11.3295 33.0403H10.3295Z" fill="#222532"/>
</svg>
