<svg width="24" height="24" viewBox="0 0 24 24" fill="none" xmlns="http://www.w3.org/2000/svg">
<path fill-rule="evenodd" clip-rule="evenodd" d="M22.8591 23.3304C23.7154 22.4376 23.7154 20.9911 22.8591 20.0983L18.3355 15.3817C18.0143 15.0469 17.9308 14.4375 18.1471 14.0223C18.1471 14.0223 18.1321 14.0848 18.2905 13.721C18.8214 12.5 19.1169 11.1429 19.1169 9.7143C19.1169 4.34823 14.9465 0 9.79986 0C4.65325 0 0.482849 4.34823 0.482849 9.7143C0.482849 15.0804 4.65325 19.4286 9.79986 19.4286C11.1657 19.4286 12.4631 19.1228 13.632 18.5715C13.9852 18.4063 13.9296 18.4197 13.9296 18.4197C14.3342 18.1942 14.9144 18.279 15.2355 18.6139L19.7591 23.3304C20.6154 24.2232 22.0027 24.2232 22.8591 23.3304ZM15.0065 9.71434C15.0065 12.7121 12.6751 15.1429 9.79991 15.1429C6.92473 15.1429 4.59334 12.7121 4.59334 9.71434C4.59334 6.71657 6.92473 4.28577 9.79991 4.28577C12.6751 4.28577 15.0065 6.71657 15.0065 9.71434Z" fill="white"/>
</svg>
